<svg width="32" height="32" viewBox="0 0 32 32" fill="none" xmlns="http://www.w3.org/2000/svg">
<mask id="mask0_473_3707" style="mask-type:luminance" maskUnits="userSpaceOnUse" x="0" y="0" width="32" height="32">
<path d="M31.5697 0.139648H0.172852V31.5365H31.5697V0.139648Z" fill="white"/>
</mask>
<g mask="url(#mask0_473_3707)">
<path d="M16.4894 6.92985C18.0541 7.13484 19.5404 7.7362 20.8075 8.67687C21.0629 8.87877 21.3225 9.06418 21.5491 9.29492C23.2776 10.8925 24.335 13.0868 24.5075 15.4342C24.9917 15.4787 25.4511 15.6686 25.8254 15.9789C26.1996 16.2892 26.4713 16.7055 26.6048 17.173C26.7609 17.7516 26.7356 18.3642 26.5322 18.928C26.3288 19.4917 25.9572 19.9794 25.4676 20.325C25.0143 20.6423 24.4581 20.8195 23.9018 20.8071C23.6958 20.8071 23.4898 20.7412 23.2838 20.7329C23.2055 20.8236 23.1478 20.9348 23.086 21.0337C22.3361 22.2166 21.3261 23.2126 20.1329 23.9459C18.9398 24.6792 17.5949 25.1305 16.2009 25.2653C15.7477 25.2942 15.2986 25.3477 14.8412 25.2942C13.234 25.2171 11.6749 24.7206 10.3191 23.8541C8.96322 22.9876 7.85784 21.7813 7.11284 20.355C6.36785 18.9288 6.00921 17.3324 6.07258 15.7245C6.13596 14.1167 6.61915 12.5534 7.47409 11.1903C8.24652 9.95162 9.30248 8.91443 10.5548 8.16434C11.8071 7.41424 13.2198 6.97274 14.6764 6.87629C15.278 6.8186 15.8878 6.86393 16.4894 6.92985Z" fill="black"/>
<path fill-rule="evenodd" clip-rule="evenodd" d="M20.7247 8.92422C19.12 7.7003 17.1469 7.05812 15.1293 7.10304C14.5936 7.0948 14.0497 7.16896 13.5223 7.26785C11.9403 7.58538 10.4731 8.32319 9.27473 9.40375C8.0764 10.4843 7.19128 11.8677 6.71237 13.4086C6.23346 14.9494 6.17846 16.5908 6.55314 18.1603C6.92782 19.7297 7.71834 21.1693 8.84164 22.3276C10.2062 23.7336 11.9922 24.6561 13.9286 24.955C15.8649 25.254 17.8459 24.913 19.571 23.984C21.0131 23.2094 22.2162 22.0351 23.0485 20.626L22.9249 20.56C22.8096 20.5023 22.6901 20.4364 22.5953 20.354C22.5046 20.2716 22.5829 20.115 22.7065 20.1604C22.7683 20.1892 22.8302 20.2263 22.8878 20.2592C23.268 20.4736 23.7019 20.5736 24.1376 20.5473C24.5732 20.521 24.992 20.3695 25.3436 20.1109C25.7902 19.7957 26.1288 19.3504 26.3131 18.8357C26.4975 18.321 26.5186 17.762 26.3736 17.2349C26.219 16.6986 25.8652 16.2417 25.3848 15.9576C25.0931 15.7893 24.7663 15.6912 24.4301 15.6712C24.094 15.6511 23.7578 15.7097 23.4482 15.8423C23.3823 15.8752 23.3081 15.9041 23.2422 15.8958C23.1392 15.8876 23.1268 15.7228 23.2175 15.6816C23.5471 15.5167 23.8973 15.4508 24.264 15.4179C24.0974 13.0978 23.0333 10.934 21.2974 9.3857C21.1161 9.22088 20.9389 9.05195 20.7247 8.9201V8.92422ZM25.1581 17.0083C25.2405 16.9589 25.2117 16.7982 25.1005 16.8023C25.018 16.8023 24.9274 16.8353 24.845 16.8682L24.7873 16.8847C24.4135 17.0015 24.0594 17.1738 23.7366 17.3956C23.646 17.478 23.646 17.5769 23.7407 17.6511C23.8109 17.6918 23.8824 17.7303 23.955 17.7664C24.1596 17.8512 24.3426 17.9808 24.4906 18.1455C24.4824 18.2238 24.4082 18.2856 24.3506 18.3309L24.3423 18.3392C24.1816 18.4628 23.9797 18.5452 23.7819 18.6276C23.6789 18.6688 23.5801 18.71 23.4894 18.7553C23.4194 18.7883 23.3823 18.846 23.4235 18.916C23.4647 18.9984 23.5553 18.9613 23.6295 18.9366L23.6542 18.9284L23.8767 18.8336C24.0992 18.7388 24.33 18.6482 24.5112 18.504C24.6225 18.4175 24.7214 18.2938 24.7337 18.1455C24.7131 18.0054 24.6225 17.9107 24.5154 17.8241C24.3645 17.7123 24.2046 17.6131 24.0374 17.5275L23.9921 17.5027C24.2146 17.3791 24.4371 17.272 24.6761 17.1855L24.8821 17.1154C24.9765 17.0861 25.0687 17.0503 25.1581 17.0083Z" fill="#9E5622"/>
<path d="M16.5385 15.3931C17.0124 15.3272 17.515 15.4013 17.9394 15.6197C18.2526 15.7845 18.5286 16.0441 18.6852 16.3614C18.8171 16.6417 18.8477 16.9592 18.7717 17.2596C18.6893 17.5892 18.4751 17.8859 18.2073 18.0919C17.8913 18.3273 17.5215 18.4799 17.1314 18.5361C16.7414 18.5922 16.3436 18.55 15.974 18.4133C15.615 18.2847 15.3061 18.0451 15.0923 17.7293C14.9648 17.5328 14.8884 17.3077 14.8698 17.0742C14.8618 16.8759 14.8955 16.6781 14.9686 16.4936C15.0417 16.3091 15.1526 16.1419 15.2942 16.0029C15.6238 15.6568 16.0729 15.4673 16.5385 15.3931Z" fill="black"/>
<path d="M16.5798 15.6361C17.1567 15.5537 17.8036 15.702 18.2197 16.1264C18.4917 16.3942 18.6482 16.8269 18.537 17.1977C18.4546 17.5356 18.2197 17.7951 17.9354 17.9888C17.6741 18.1525 17.3805 18.2578 17.0748 18.2977C16.769 18.3375 16.4582 18.3108 16.1637 18.2195C15.8052 18.1083 15.4591 17.8817 15.2655 17.5562C15.1418 17.3501 15.0965 17.1029 15.1212 16.8681C15.1501 16.5879 15.3067 16.3283 15.5044 16.1305C15.7929 15.8545 16.1843 15.6896 16.5757 15.6361H16.5798Z" fill="white"/>
<path d="M8.76347 16.0318C9.48865 15.9206 10.3251 16.1719 10.7289 16.8188C10.9555 17.1732 10.9884 17.6429 10.8113 18.0219C10.6877 18.2815 10.4816 18.4999 10.2427 18.6565C9.93959 18.8458 9.59399 18.9562 9.23731 18.9779C8.93503 18.9998 8.63172 18.9526 8.35043 18.8398C8.06913 18.727 7.81724 18.5516 7.6139 18.3269C7.3943 18.0714 7.28338 17.7401 7.30488 17.4039C7.32548 17.0619 7.49441 16.757 7.73751 16.5221C8.02181 16.2543 8.38028 16.0978 8.76347 16.0318Z" fill="black"/>
<path d="M9.05611 16.2541C9.45166 16.2418 9.85958 16.3489 10.181 16.5838C10.3952 16.7403 10.5724 16.9628 10.6424 17.2183C10.7139 17.4753 10.6829 17.7501 10.5559 17.9847C10.4518 18.1568 10.3143 18.3063 10.1516 18.4245C9.98885 18.5426 9.8041 18.6271 9.60824 18.6728C9.31895 18.7518 9.01478 18.7594 8.72193 18.6948C8.42907 18.6302 8.15631 18.4954 7.92714 18.3019C7.79654 18.1891 7.69421 18.0472 7.62838 17.8876C7.56255 17.728 7.53504 17.5552 7.54807 17.3831C7.57691 17.1606 7.6758 16.9463 7.82825 16.7774C7.98665 16.6114 8.17721 16.4793 8.38831 16.3894C8.59942 16.2994 8.82664 16.2534 9.05611 16.2541Z" fill="white"/>
<path d="M16.2629 16.3986C16.3707 16.3695 16.484 16.3682 16.5924 16.3948C16.7007 16.4215 16.8006 16.4752 16.8825 16.5509C16.9645 16.6267 17.0258 16.722 17.0609 16.828C17.0959 16.9339 17.1035 17.047 17.0829 17.1567C17.056 17.3059 16.9779 17.4411 16.8621 17.5388C16.7463 17.6366 16.5999 17.6909 16.4483 17.6924C16.2867 17.6983 16.1285 17.6443 16.0044 17.5406C15.8802 17.437 15.7987 17.291 15.7757 17.1309C15.7527 16.9708 15.7897 16.8078 15.8797 16.6734C15.9696 16.5389 16.1061 16.4425 16.2629 16.4027V16.3986Z" fill="black"/>
<path d="M16.3493 16.6291C16.5141 16.6003 16.6707 16.6539 16.7696 16.7939C16.8932 16.9588 16.8643 17.1977 16.7119 17.3378C16.5306 17.5026 16.2257 17.4779 16.0897 17.2678C16.0508 17.2115 16.0265 17.1465 16.0191 17.0785C16.0116 17.0105 16.0212 16.9417 16.0469 16.8783C16.0727 16.8149 16.1138 16.759 16.1666 16.7155C16.2194 16.672 16.2822 16.6423 16.3493 16.6291Z" fill="white"/>
<path d="M19.0314 16.6704C19.1014 16.6828 19.1797 16.6622 19.2209 16.7281C19.2868 16.8311 19.3198 16.9588 19.3404 17.0783C19.3693 17.2964 19.3479 17.5182 19.2779 17.7267C19.208 17.9352 19.0912 18.125 18.9366 18.2815C18.8006 18.4051 18.6111 18.5287 18.4257 18.5369C18.3103 18.5369 18.2485 18.4257 18.3268 18.3391C18.4627 18.2691 18.5987 18.2485 18.7182 18.1496C18.9778 17.9312 19.1138 17.5728 19.1138 17.239C19.1138 17.0742 19.0478 16.9424 19.0025 16.7858L19.0314 16.6704ZM9.21261 16.8476C9.39803 16.8105 9.59168 16.8682 9.7359 16.9836C9.85186 17.0805 9.93338 17.2123 9.96828 17.3593C10.0032 17.5063 9.9896 17.6607 9.92955 17.7994C9.82242 18.0425 9.59168 18.2197 9.31974 18.2197C8.96951 18.2444 8.66049 17.956 8.64401 17.6098C8.60281 17.2514 8.85827 16.9094 9.21261 16.8476Z" fill="black"/>
<path d="M9.17555 17.1072C9.38568 17.0248 9.62878 17.1319 9.71119 17.342C9.82656 17.6057 9.64526 17.9477 9.35272 17.9766C9.27214 17.9885 9.18984 17.9761 9.1164 17.9408C9.04297 17.9056 8.98177 17.8491 8.94069 17.7788C8.90697 17.7203 8.88626 17.6552 8.87997 17.588C8.87368 17.5207 8.88197 17.4529 8.90426 17.3892C8.92655 17.3254 8.96232 17.2673 9.00914 17.2186C9.05595 17.1699 9.11271 17.1319 9.17555 17.1072Z" fill="white"/>
<path d="M7.15271 17.4698C7.17332 17.6346 7.09503 17.7747 7.08679 17.9395C7.07443 18.1868 7.18568 18.4381 7.38757 18.5947C7.48646 18.673 7.59359 18.71 7.70484 18.7718C7.78724 18.8048 7.78312 18.8542 7.77076 18.9325C7.70896 19.0067 7.63479 18.9902 7.55239 18.9655C7.40036 18.9116 7.26229 18.8244 7.14824 18.7104C7.03418 18.5963 6.94703 18.4583 6.89313 18.3062C6.84885 18.1759 6.83114 18.038 6.84105 17.9007C6.85096 17.7634 6.88828 17.6295 6.95082 17.5069C7.00438 17.4286 7.07443 17.4698 7.15683 17.4698H7.15271Z" fill="black"/>
<path d="M9.8967 12.0927C10.181 12.1009 10.4818 12.2122 10.6384 12.4635C10.6796 12.5212 10.6631 12.6119 10.6672 12.6819C10.4076 12.6901 10.1522 12.6984 9.90082 12.7602C9.27667 12.9136 8.69145 13.1957 8.18265 13.5884C7.82659 13.8479 7.51963 14.1688 7.27617 14.536C7.22261 14.6308 7.18141 14.7462 7.10312 14.8245C7.05368 14.8327 6.99599 14.8327 6.94655 14.8368C6.94655 14.7627 6.93419 14.6967 6.95479 14.6226C7.20081 13.7557 7.75841 13.0103 8.52051 12.5294C8.93255 12.2905 9.41875 12.0762 9.90082 12.0927H9.8967ZM17.3751 13.6831C17.8127 13.7264 18.2351 13.8672 18.6112 14.0952L18.603 14.2888C18.4381 14.3547 18.3022 14.2847 18.1374 14.2559C17.8572 14.2064 17.5646 14.2064 17.2803 14.2147C16.0683 14.278 14.8857 14.6116 13.8193 15.1912C13.7616 15.2159 13.6956 15.2324 13.638 15.253C13.5308 15.0305 13.4896 14.7997 13.6338 14.5855C13.8399 14.2723 14.2601 14.0746 14.6062 13.951C15.4839 13.6461 16.4563 13.5801 17.3751 13.6831Z" fill="black"/>
<path d="M14.8206 19.6122C15.0679 19.7935 15.3027 20.0242 15.4511 20.2961C15.5582 20.4939 15.5829 20.7782 15.4346 20.9595C15.2615 21.182 14.9607 21.2726 14.6929 21.3221C14.0425 21.4031 13.3834 21.3809 12.7399 21.2562C12.505 21.2108 12.3196 21.3221 12.0806 21.3633C11.7222 21.4251 11.3225 21.4828 10.9681 21.4045C10.7539 21.3633 10.5437 21.2727 10.416 21.0872C10.3006 20.9265 10.3089 20.704 10.3707 20.5228C10.4366 20.3579 10.5396 20.1931 10.6591 20.0613C10.7168 19.9912 10.7868 20.0201 10.8651 20.016C10.8775 20.0901 10.9063 20.1478 10.8486 20.2137C10.7415 20.3497 10.6344 20.4774 10.5849 20.6464C10.5396 20.7823 10.5726 20.9348 10.6838 21.0254C10.8074 21.1243 10.9805 21.1696 11.1371 21.1861C11.4549 21.2098 11.7745 21.1848 12.0847 21.112C12.3196 21.0708 12.4968 20.9677 12.7399 21.0089C13.2343 21.0914 13.7205 21.1532 14.2232 21.1243C14.5116 21.1161 14.8 21.0831 15.0596 20.9595C15.1915 20.8812 15.3068 20.7865 15.2945 20.6175C15.2821 20.3703 15.0431 20.1313 14.8701 19.9706C14.7671 19.8635 14.594 19.8058 14.6229 19.6245C14.697 19.5874 14.7465 19.5504 14.8206 19.6122Z" fill="black"/>
<path d="M13.4814 5.09634C14.771 5.01393 16.0937 5.10046 17.3504 5.42597C18.2362 5.64847 19.0892 5.99457 19.8597 6.50137C20.8238 6.34068 21.8333 6.53846 22.7192 6.92989C23.6742 7.36771 24.52 8.01228 25.1955 8.817C26.073 9.83273 26.6294 11.086 26.7942 12.4182C26.8354 12.9208 26.8312 13.4482 26.72 13.9427C26.5729 14.699 26.1976 15.3921 25.6446 15.9287C25.5663 15.9905 25.521 16.0193 25.4221 15.9699C25.1091 15.8073 24.7655 15.7122 24.4134 15.6909C24.0613 15.6696 23.7087 15.7226 23.3784 15.8463C23.4196 16.283 23.3908 16.7115 23.193 17.1071C23.0578 17.3894 22.8293 17.6165 22.5461 17.7499C22.4349 17.787 22.3566 17.6922 22.4019 17.5851C22.5379 17.2513 22.5255 16.897 22.5173 16.5385C22.5032 16.2131 22.4632 15.8893 22.3978 15.5702C22.0846 15.6073 21.7674 15.5826 21.4707 15.4713C20.8627 15.2201 20.3354 14.8068 19.9462 14.2764C19.4726 13.6568 19.0871 12.9746 18.8007 12.2492C18.4093 11.2892 18.1415 10.2715 17.9684 9.24963C17.9396 9.08894 17.9272 8.93237 17.8819 8.77991C17.0455 8.73459 16.209 8.73871 15.3767 8.76343C14.4796 8.81329 13.5857 8.90956 12.6985 9.05185C11.3425 9.25671 10.0132 9.61045 8.73477 10.1067C8.63176 10.152 8.52875 10.1849 8.45047 10.2715C8.20047 10.5494 7.977 10.8502 7.78297 11.1697C7.31124 11.9314 6.93746 12.7496 6.67048 13.6048C6.62516 13.7367 6.60456 13.885 6.53863 14.0045C6.48095 14.0704 6.39854 14.0457 6.34086 13.9962C5.79493 13.5413 5.3726 12.9561 5.113 12.2946C4.9198 11.7709 4.85757 11.2079 4.93171 10.6547C5.03883 9.8718 5.3973 9.14662 5.88762 8.52857C6.67048 7.5397 7.77885 6.78156 8.91606 6.25003C10.3555 5.59241 11.9023 5.20152 13.4814 5.09634Z" fill="black"/>
<path d="M14.8411 5.31048C15.1584 5.33933 15.4715 5.33933 15.7888 5.38465C17.1568 5.5371 18.57 5.94089 19.7278 6.70315C19.7608 6.72376 19.7938 6.74436 19.8267 6.7526C20.4983 6.61251 21.2276 6.68667 21.8786 6.87621C23.1329 7.26242 24.2433 8.01419 25.0678 9.03526C25.7725 9.87922 26.2579 10.8841 26.4811 11.9607C26.6088 12.6488 26.6253 13.3451 26.4522 14.025C26.3013 14.6728 25.9715 15.2653 25.5004 15.7349C25.1682 15.5723 24.807 15.4773 24.4378 15.4553C24.0686 15.4334 23.6987 15.485 23.3496 15.6072C23.2672 15.6401 23.1189 15.6772 23.1271 15.7926C23.2136 16.3282 23.1271 16.9463 22.7274 17.3418C22.7975 16.7197 22.748 16.081 22.6244 15.4671C22.5956 15.3435 22.5503 15.3105 22.4225 15.327C22.0517 15.3847 21.6974 15.3229 21.3595 15.1622C20.903 14.9312 20.5033 14.602 20.1893 14.198C19.6825 13.58 19.2993 12.8383 18.9985 12.0967C18.5865 11.0625 18.3146 9.97057 18.1497 8.87457C18.1291 8.78392 18.1621 8.59438 18.0509 8.56142C17.7501 8.53258 17.4493 8.52846 17.1485 8.50374C16.5881 8.50374 16.0195 8.47902 15.4592 8.52846C13.819 8.59424 12.1905 8.83458 10.6013 9.2454C9.77724 9.46377 8.95318 9.73572 8.18268 10.0942C7.70739 10.3074 7.26036 10.5786 6.85181 10.9018C6.57764 11.1122 6.35734 11.3848 6.20904 11.697C6.18432 11.7753 6.14311 11.8536 6.17608 11.936C6.25024 12.0184 6.36561 11.9937 6.39857 11.8865C6.48098 11.6558 6.61283 11.4621 6.78589 11.2891C7.11963 10.9471 7.55227 10.6834 7.97666 10.465C7.81185 10.671 7.66351 10.8935 7.52342 11.1243C7.03206 11.9364 6.6484 12.809 6.38209 13.7201C5.91899 13.3039 5.56045 12.7844 5.33553 12.2038C5.05956 11.4185 5.08898 10.5581 5.41794 9.7934C5.77194 8.99514 6.31158 8.29305 6.9919 7.7456C7.64237 7.20789 8.36322 6.76152 9.13447 6.41885C10.4612 5.8214 11.9075 5.47118 13.3578 5.35169C13.8522 5.32696 14.3426 5.27752 14.8411 5.3146V5.31048Z" fill="#562306"/>
<path d="M26.1181 17.1649C26.1428 17.3462 25.9533 17.4986 25.7844 17.4204C25.6814 17.3792 25.6608 17.2885 25.6113 17.1979C25.6649 17.1072 25.6855 17.0166 25.7885 16.9795C25.9286 16.9177 26.0975 17.0207 26.1181 17.1649ZM25.978 17.8695C26.1635 17.7788 26.3736 17.9601 26.3077 18.1579C26.2541 18.3309 26.0275 18.3928 25.8998 18.2485C25.8743 18.2207 25.8558 18.1871 25.8458 18.1507C25.8358 18.1143 25.8345 18.076 25.8422 18.039C25.8498 18.002 25.8661 17.9674 25.8897 17.9379C25.9133 17.9084 25.9436 17.885 25.978 17.8695Z" fill="black"/>
</g>
</svg>
