<svg width="32" height="33" viewBox="0 0 32 33" fill="none" xmlns="http://www.w3.org/2000/svg">
<mask id="mask0_473_3759" style="mask-type:luminance" maskUnits="userSpaceOnUse" x="0" y="0" width="32" height="33">
<path d="M31.9379 0.709473H0.541016V32.1064H31.9379V0.709473Z" fill="white"/>
</mask>
<g mask="url(#mask0_473_3759)">
<path d="M16.857 7.49968C18.4217 7.70467 19.9081 8.30602 21.1751 9.24669C21.4306 9.44859 21.6902 9.63401 21.9168 9.86474C23.6453 11.4624 24.7026 13.6567 24.8752 16.004C25.3594 16.0485 25.8187 16.2384 26.193 16.5487C26.5673 16.859 26.839 17.2753 26.9724 17.7428C27.1286 18.3214 27.1032 18.934 26.8999 19.4978C26.6965 20.0615 26.3248 20.5492 25.8352 20.8949C25.382 21.2121 24.8258 21.3893 24.2695 21.3769C24.0635 21.3769 23.8575 21.311 23.6515 21.3028C23.5732 21.3934 23.5155 21.5047 23.4537 21.6036C22.7038 22.7864 21.6938 23.7824 20.5006 24.5157C19.3075 25.2491 17.9626 25.7003 16.5686 25.8351C16.1154 25.864 15.6663 25.9175 15.2089 25.864C13.6017 25.7869 12.0426 25.2905 10.6867 24.4239C9.3309 23.5574 8.22551 22.3511 7.48052 20.9248C6.73552 19.4986 6.37688 17.9022 6.44026 16.2943C6.50364 14.6865 6.98682 13.1233 7.84176 11.7601C8.6142 10.5214 9.67015 9.48426 10.9225 8.73416C12.1748 7.98407 13.5875 7.54257 15.0441 7.44611C15.6457 7.38843 16.2555 7.43375 16.857 7.49968Z" fill="black"/>
<path fill-rule="evenodd" clip-rule="evenodd" d="M21.0928 9.4938C19.4881 8.26988 17.5151 7.6277 15.4974 7.67262C14.9618 7.66438 14.4179 7.73854 13.8905 7.83743C12.3085 8.15496 10.8412 8.89277 9.64289 9.97333C8.44457 11.0539 7.55944 12.4373 7.08053 13.9781C6.60162 15.519 6.54662 17.1604 6.9213 18.7299C7.29598 20.2993 8.08651 21.7389 9.2098 22.8972C10.5744 24.3032 12.3604 25.2257 14.2967 25.5246C16.2331 25.8235 18.2141 25.4826 19.9391 24.5536C21.3813 23.779 22.5844 22.6047 23.4167 21.1955L23.2931 21.1296C23.1777 21.0719 23.0582 21.006 22.9635 20.9236C22.8728 20.8412 22.9511 20.6846 23.0747 20.7299C23.1365 20.7588 23.1983 20.7959 23.256 20.8288C23.6361 21.0432 24.0701 21.1432 24.5057 21.1169C24.9414 21.0906 25.3601 20.9391 25.7117 20.6805C26.1584 20.3653 26.4969 19.92 26.6813 19.4053C26.8656 18.8906 26.8868 18.3316 26.7418 17.8045C26.5872 17.2682 26.2334 16.8112 25.7529 16.5272C25.4613 16.3588 25.1344 16.2608 24.7983 16.2407C24.4621 16.2207 24.1259 16.2793 23.8164 16.4118C23.7504 16.4448 23.6763 16.4736 23.6104 16.4654C23.5073 16.4572 23.495 16.2923 23.5856 16.2511C23.9153 16.0863 24.2655 16.0204 24.6322 15.9874C24.4656 13.6674 23.4014 11.5036 21.6656 9.95528C21.4843 9.79046 21.3071 9.62153 21.0928 9.48968V9.4938ZM25.5263 17.5779C25.6087 17.5284 25.5799 17.3677 25.4686 17.3719C25.3862 17.3719 25.2956 17.4048 25.2132 17.4378L25.1555 17.4543C24.7817 17.5711 24.4275 17.7433 24.1048 17.9652C24.0141 18.0476 24.0141 18.1465 24.1089 18.2207C24.1791 18.2614 24.2505 18.2999 24.3232 18.336C24.5278 18.4208 24.7108 18.5503 24.8588 18.7151C24.8506 18.7934 24.7764 18.8552 24.7187 18.9005L24.7105 18.9088C24.5498 19.0324 24.3479 19.1148 24.1501 19.1972C24.0471 19.2384 23.9482 19.2796 23.8576 19.3249C23.7875 19.3579 23.7504 19.4156 23.7916 19.4856C23.8328 19.568 23.9235 19.5309 23.9977 19.5062L24.0224 19.498L24.2449 19.4032C24.4674 19.3084 24.6981 19.2178 24.8794 19.0736C24.9907 18.987 25.0895 18.8634 25.1019 18.7151C25.0813 18.575 24.9907 18.4802 24.8835 18.3937C24.7326 18.2819 24.5728 18.1826 24.4056 18.097L24.3602 18.0723C24.5827 17.9487 24.8052 17.8416 25.0442 17.7551L25.2502 17.685C25.3446 17.6557 25.4369 17.6199 25.5263 17.5779Z" fill="#F2D3B1"/>
<path d="M16.8161 14.7597C17.2016 14.7552 17.5836 14.8337 17.9362 14.9897C18.2888 15.1458 18.6037 15.3757 18.8596 15.6641C19.1155 15.9525 19.3065 16.2924 19.4196 16.661C19.5326 17.0296 19.5651 17.4182 19.5149 17.8005C19.4985 17.9118 19.3831 17.9488 19.2883 17.9571C18.3406 17.9983 17.4177 18.1095 16.4865 18.2167C15.9426 18.2579 15.407 18.332 14.8713 18.4062C14.6818 18.4268 14.517 18.4762 14.3316 18.4062C14.1746 18.0013 14.1184 17.5644 14.1678 17.133C14.2172 16.7016 14.3708 16.2887 14.6153 15.9298C14.8598 15.571 15.1879 15.277 15.5713 15.0731C15.9547 14.8693 16.3819 14.7617 16.8161 14.7597Z" fill="black"/>
<path d="M17.2361 15.0274C17.8231 15.1244 18.3555 15.4299 18.7354 15.8878C19.1154 16.3458 19.3174 16.9253 19.3045 17.5202C19.2963 17.5779 19.3086 17.6644 19.2757 17.7097C19.1026 17.7386 18.9254 17.7386 18.7524 17.755C17.9942 17.8045 17.2443 17.8951 16.4903 17.9858C16.5502 17.8515 16.5864 17.708 16.5974 17.5614C16.6039 17.3695 16.5562 17.1797 16.4598 17.0137C16.3634 16.8477 16.2222 16.7122 16.0523 16.6228C15.8824 16.5333 15.6908 16.4935 15.4994 16.508C15.3079 16.5224 15.1244 16.5905 14.9699 16.7044C14.8374 16.803 14.7312 16.9329 14.6607 17.0823C14.5903 17.2318 14.5578 17.3964 14.5661 17.5614C14.5661 17.8086 14.6733 18.0229 14.8298 18.2083L14.529 18.2412C14.3884 17.8409 14.3546 17.4108 14.431 16.9934C14.5074 16.576 14.6914 16.1858 14.9647 15.8612C15.2381 15.5367 15.5914 15.2891 15.9897 15.1428C16.3881 14.9966 16.8177 14.9568 17.2361 15.0274Z" fill="white"/>
<path d="M11.0473 16.037C11.4668 16.2977 11.7897 16.6884 11.9667 17.1496C12.1437 17.6107 12.1652 18.1171 12.0279 18.5916C11.8631 18.6369 11.7107 18.6204 11.5417 18.6204C10.4952 18.6081 9.45685 18.6081 8.41028 18.6781C8.17955 18.6658 7.87464 18.7523 7.67687 18.6204C7.54732 18.1799 7.55415 17.7105 7.69646 17.2739C7.83877 16.8373 8.1099 16.454 8.47418 16.1744C8.83847 15.8949 9.27884 15.7321 9.73738 15.7076C10.1959 15.6831 10.6511 15.7979 11.0432 16.037H11.0473Z" fill="black"/>
<path d="M10.8162 16.1813C11.599 16.5975 12.0399 17.5369 11.8339 18.4022L11.599 18.4063C11.707 18.212 11.7476 17.9875 11.7144 17.7677C11.6864 17.5993 11.6123 17.442 11.5003 17.3133C11.3882 17.1846 11.2427 17.0894 11.0799 17.0384C10.9453 16.9967 10.8029 16.987 10.6639 17.01C10.5249 17.0331 10.3932 17.0881 10.2793 17.1709C10.1653 17.2537 10.0722 17.3619 10.0073 17.4869C9.94245 17.612 9.90762 17.7504 9.90559 17.8913C9.89322 18.0726 9.94679 18.2291 10.021 18.3898C9.38642 18.394 8.75601 18.431 8.12148 18.4722C8.04732 18.464 7.8825 18.4928 7.87014 18.3898C7.78454 18.0098 7.81072 17.6131 7.94552 17.2476C8.08031 16.8821 8.31797 16.5634 8.62983 16.33C8.94169 16.0965 9.31443 15.9582 9.7031 15.9319C10.0918 15.9055 10.4798 15.9921 10.8203 16.1813H10.8162Z" fill="white"/>
<path d="M10.9734 13.3504C10.7467 13.0537 10.3759 12.9672 10.0174 13.0084C9.48607 13.1003 8.99249 13.3435 8.59593 13.7089C8.14037 14.101 7.79045 14.601 7.57821 15.1634C7.54937 15.2458 7.52464 15.357 7.61941 15.4023C7.70594 15.4106 7.7389 15.4023 7.78835 15.3323C8.26034 14.7079 8.8768 14.2074 9.58481 13.8737C9.92655 13.7145 10.2997 13.6342 10.6767 13.6388C10.7179 13.6388 10.7632 13.6471 10.8085 13.6553C10.8786 13.6677 10.9445 13.68 11.0146 13.6677C11.1299 13.577 11.0434 13.4493 10.9734 13.3587V13.3504ZM18.3364 14.1044C17.5908 13.6739 16.7621 13.407 15.9054 13.3216C15.4934 13.2927 15.0236 13.3175 14.6446 13.4946C14.3644 13.6224 14.1337 13.8449 14.0842 14.1621L14.0801 14.2033C14.0636 14.3187 14.0389 14.4794 14.1337 14.5618C14.2161 14.5948 14.282 14.5494 14.3479 14.5041L14.4427 14.4464C15.0336 14.1817 15.674 14.0455 16.3215 14.0467C16.9602 14.0467 17.6153 14.1333 18.2169 14.3434L18.2375 14.3475C18.2993 14.364 18.3487 14.3805 18.3982 14.3228C18.4724 14.2445 18.4188 14.1498 18.3364 14.1086V14.1044Z" fill="black"/>
<path d="M10.2729 20.9608L12.5721 20.9443C13.2148 20.9237 13.8617 20.9361 14.5086 20.9278C14.6652 20.9278 14.8094 20.9196 14.9577 20.9855C15.1308 21.0638 15.2791 21.2327 15.2709 21.4346C15.2874 21.6983 15.0443 21.8879 14.797 21.9002L10.7179 21.9249C10.5366 21.9208 10.3842 21.9661 10.207 21.9043L10.174 21.8096C10.2441 21.5747 10.277 21.3481 10.1699 21.1215C10.1287 21.0391 10.1781 20.9608 10.2729 20.9608Z" fill="black"/>
<path d="M14.9414 21.2532C15.0279 21.3274 15.0774 21.451 14.995 21.554C14.8961 21.69 14.686 21.6612 14.5376 21.657V21.1626C14.6736 21.175 14.8302 21.1544 14.9414 21.2532ZM10.4585 21.1956H10.6645C10.6728 21.3604 10.6769 21.5252 10.6728 21.69H10.4626C10.4791 21.5252 10.4791 21.3604 10.4626 21.1956H10.4585ZM10.9035 21.1956H11.4639L11.4762 21.69H10.9323L10.9035 21.1956ZM11.7111 21.1832L12.4939 21.1791V21.6735C12.2385 21.6735 11.9789 21.6859 11.7152 21.6818V21.1873L11.7111 21.1832ZM12.7288 21.1791C12.9843 21.175 13.2438 21.1791 13.4993 21.1708L13.5117 21.6653L12.7453 21.6776C12.7329 21.5128 12.7288 21.348 12.7288 21.1791ZM13.7424 21.1667C13.9278 21.175 14.1132 21.1667 14.2945 21.1667V21.6612C14.1132 21.6612 13.9319 21.6694 13.7506 21.6612C13.7506 21.4963 13.7383 21.3315 13.7424 21.1667Z" fill="white"/>
<path d="M21.7355 3.89847C21.785 3.85727 21.8633 3.86551 21.9209 3.89023C22.3335 4.0861 22.6811 4.39647 22.9222 4.78434C23.1323 5.11397 23.2477 5.48892 23.3054 5.87623C23.4372 5.94627 23.5114 6.06988 23.5485 6.20585C23.6062 6.46956 23.5814 6.75386 23.5402 7.01344C23.4295 7.56339 23.2049 8.08409 22.881 8.54208L22.8727 8.57504C23.2024 8.90467 23.4743 9.28374 23.6968 9.69577L23.7133 9.71225C24.0841 9.76994 24.4055 10.0295 24.6404 10.3097C25.0112 10.7837 25.2831 11.3273 25.4397 11.9084C25.6416 12.6171 25.7405 13.3629 25.7281 14.0963C25.724 14.1457 25.7776 14.1787 25.7899 14.2281C25.9053 14.5413 26.0784 14.805 26.2596 15.0769C26.3915 15.2788 26.5192 15.4766 26.6634 15.6661C27.1739 16.2988 27.6288 16.9743 28.0231 17.6851C28.4269 18.435 28.6783 19.2426 28.8307 20.079C28.9543 20.8289 29.0203 21.6859 28.7854 22.4193C28.5539 23.0905 28.1385 23.683 27.5864 24.1293C27.5122 24.1952 27.3721 24.2282 27.3062 24.1334C27.265 24.0675 27.3186 23.9933 27.3474 23.9315C27.6194 23.5154 27.677 22.9509 27.7265 22.4647C27.7224 22.1639 27.7512 21.8507 27.6935 21.5582C27.6729 21.4717 27.6894 21.3439 27.6317 21.2698C27.6152 21.3439 27.5905 21.4016 27.5575 21.4675C27.2361 22.1353 26.7916 22.7364 26.2473 23.2393C25.6104 23.8504 24.8888 24.3666 24.1047 24.7721C24.0223 24.8133 23.9234 24.7308 23.9317 24.6484C23.9317 24.5908 23.977 24.5496 24.0141 24.5083C24.3836 23.981 24.6493 23.3881 24.7969 22.7613C24.2407 23.0044 23.6803 23.4123 23.1818 23.7667C22.7409 24.0922 22.2794 24.4671 22.0487 24.9781C21.9786 25.1099 21.9498 25.2582 21.8962 25.3983C21.8138 25.4972 21.682 25.4437 21.5954 25.3901C21.2228 25.2033 20.907 24.9202 20.6807 24.5702C20.6395 24.4589 20.5159 24.2817 20.5818 24.1705C21.7685 23.4123 22.7656 22.3369 23.4661 21.1214C23.4949 21.0184 23.5897 21.0061 23.6762 21.039C24.3478 21.2492 25.0854 21.1214 25.6622 20.7218C26.0754 20.4408 26.4023 20.0502 26.606 19.5939C26.8098 19.1376 26.8825 18.6336 26.8159 18.1383C26.7451 17.6425 26.5135 17.1836 26.1566 16.8322C25.782 16.4717 25.2877 16.2619 24.7681 16.243C24.7338 16.2393 24.6992 16.2465 24.6692 16.2636C24.6445 16.7457 24.5538 17.236 24.4508 17.7057C24.1871 18.8264 23.7504 19.9101 23.1529 20.8948C22.6904 21.6712 22.0948 22.3602 21.3935 22.9303C21.3441 22.9715 21.2658 22.9673 21.2081 22.9385C21.1752 22.8561 21.1752 22.7984 21.2493 22.7407C21.7932 21.7354 22.0198 20.5982 22.2217 19.4815C22.403 18.3279 22.5225 17.1618 22.539 15.9999C22.5761 15.5343 22.539 15.0069 22.5349 14.5578C22.4442 14.6443 22.3865 14.7926 22.2753 14.8627C22.1929 14.9039 22.0899 14.8627 22.0816 14.7679C22.1 14.188 22.0558 13.6078 21.9498 13.0374C21.8756 13.2969 21.7726 13.5483 21.7108 13.812C21.6572 13.9273 21.5378 13.9067 21.4718 13.812C21.2741 13.3011 21.101 12.7737 20.9362 12.2463C20.8459 11.906 20.7428 11.5693 20.6272 11.2368H20.5942C20.5406 11.3933 20.5077 11.554 20.4623 11.7106C20.4376 11.7889 20.3552 11.8466 20.2769 11.8589C20.1616 11.8589 20.0874 11.7559 20.0215 11.6777C19.733 11.3109 19.4158 10.936 19.1892 10.5322L19.148 10.5363C19.0573 10.7588 19.0161 10.9896 18.9502 11.2121C18.876 11.3439 18.637 11.3521 18.5052 11.348C18.258 11.3068 18.0108 11.1667 17.8171 11.0019C17.5462 10.7508 17.3302 10.4464 17.1826 10.1078C17.1084 10.1078 17.0425 10.2726 17.0095 10.3344C16.9683 10.4745 16.9601 10.6311 16.7747 10.6311C16.5892 10.5899 16.4162 10.5075 16.2349 10.458C15.8023 10.3344 15.3284 10.2644 14.8752 10.3138C14.6898 10.355 14.5291 10.4251 14.3519 10.491C14.286 10.5116 14.1995 10.5157 14.1459 10.4786C14.112 10.4483 14.0871 10.4091 14.074 10.3655C14.0609 10.3218 14.0601 10.2755 14.0717 10.2314C14.1129 9.98832 14.2365 9.79466 14.356 9.58452C14.3684 9.56392 14.3766 9.54332 14.3766 9.51036H14.3601C13.6308 9.83998 12.9757 10.388 12.2753 10.7877C12.2052 10.8165 12.1434 10.7959 12.1063 10.7259C12.0692 10.6187 12.1393 10.5528 12.1558 10.4498C10.3717 11.2491 8.61229 12.3163 7.2155 13.6925C6.5068 14.4094 5.83106 15.2541 5.49732 16.2141C5.45611 16.3336 5.34487 16.3542 5.26658 16.2553C5.06881 15.9752 4.92459 15.6414 4.87103 15.2994C4.76621 14.6789 4.86145 14.0411 5.14297 13.4782C5.63741 12.4688 6.44911 11.7271 7.38855 11.1379L7.36383 11.0349C7.25488 10.7096 7.2651 10.3562 7.39267 10.0378C7.61517 9.45267 8.09725 8.96647 8.57932 8.59152C9.51876 7.87459 10.6518 7.39663 11.7891 7.09172C12.7023 6.84864 13.6464 6.74174 14.5909 6.77446C14.7145 6.77446 14.8381 6.7415 14.9576 6.7209C15.11 6.69205 15.2625 6.68793 15.4149 6.65497C15.6745 6.62201 15.9382 6.63025 16.1978 6.60141C16.581 6.59317 16.9683 6.62201 17.3515 6.64261C17.4669 6.66321 17.5822 6.68381 17.7017 6.68793C17.5987 6.22234 17.5781 5.69905 17.8377 5.2829C17.963 5.08765 18.1272 4.9203 18.32 4.79128C18.5128 4.66226 18.7301 4.57434 18.9584 4.533C19.3952 4.42587 19.8731 4.44647 20.3181 4.47532C20.9504 4.55453 21.5721 4.70236 22.1723 4.91619C22.0891 4.60768 21.9354 4.32274 21.7232 4.08389C21.6778 4.04268 21.682 3.93967 21.7314 3.90259L21.7355 3.89847ZM6.71694 17.7716C6.78286 17.8417 6.76638 17.9241 6.78286 18.0147C6.99924 19.416 7.54341 20.7465 8.37109 21.8978C9.19876 23.0491 10.2866 23.9887 11.546 24.6402C11.649 24.6732 11.6778 24.838 11.5872 24.8998C11.48 24.9575 11.3647 24.9904 11.2575 25.0275C10.5571 25.2212 9.77834 25.1882 9.07376 25.0358C8.97075 25.0193 8.88835 24.9739 8.78534 24.9822C8.81418 25.147 8.86775 25.3118 8.97075 25.4478C9.00784 25.5096 9.06964 25.5632 9.03668 25.6373C8.97488 25.7486 8.85539 25.695 8.76886 25.6538C8.28486 25.456 7.84817 25.1581 7.48743 24.7796C7.1267 24.4011 6.85008 23.9506 6.67573 23.4577H6.64277C6.392 23.7172 6.15804 23.9924 5.94231 24.2817C5.7981 24.4877 5.63741 24.6938 5.56324 24.9369C5.53852 25.044 5.39843 25.0316 5.35311 24.9451C5.26246 24.7803 5.21302 24.5784 5.14709 24.4012C4.83395 23.2558 4.89163 22.0114 5.13885 20.8577C5.38607 19.7659 5.82283 18.6863 6.48208 17.7757C6.53976 17.6851 6.65513 17.6851 6.71694 17.7757V17.7716Z" fill="black"/>
<path d="M22.1975 4.34348C22.5217 4.59797 22.7716 4.93495 22.9209 5.31913C23.0702 5.70332 23.1135 6.12059 23.0463 6.52725C22.962 7.11526 22.6479 7.6458 22.1727 8.00233C22.0244 7.92816 21.8843 7.82515 21.7236 7.77983C22.0821 7.40488 22.317 6.93516 22.4365 6.43248C22.608 5.72854 22.5233 4.98651 22.1975 4.33936V4.34348Z" fill="#B9A05F"/>
<path d="M20.7264 4.77202C21.2414 4.86267 21.7441 5.00688 22.2344 5.18818C22.2921 5.456 22.3127 5.7609 22.2633 6.02872C22.2081 6.64667 21.9401 7.22629 21.5051 7.66861C21.3238 7.63977 21.0931 7.54088 20.8953 7.53264C20.7346 7.50792 20.5492 7.47496 20.3926 7.5244C19.7334 7.16593 19.0329 6.9352 18.2995 6.78686C18.1882 6.74566 18.0482 6.77038 17.9493 6.70446C17.8257 6.2265 17.8009 5.74854 18.0894 5.32003C18.3366 4.97804 18.7239 4.81323 19.1277 4.73494C19.6633 4.63605 20.1907 4.67726 20.7264 4.77202ZM23.3057 6.25946L23.3098 6.2677C23.3963 6.51904 23.3345 6.84455 23.281 7.09589C23.1703 7.55781 22.9747 7.99513 22.7041 8.38555L22.6794 8.39379C22.5846 8.31139 22.4858 8.22898 22.3869 8.15481C22.4281 8.08889 22.527 8.0312 22.5846 7.96116C23.0364 7.51048 23.295 6.90163 23.3057 6.26358V6.25946ZM16.1981 6.83631C17.418 6.80415 18.6314 7.02439 19.7622 7.4832C20.269 7.70158 20.7511 7.97764 21.1343 8.38143C21.2002 8.43912 21.2579 8.435 21.3238 8.38967C21.3444 8.32787 21.3485 8.26606 21.2991 8.21662C21.126 8.02708 20.9612 7.91583 20.7717 7.75926C21.5015 7.85305 22.1774 8.1932 22.6876 8.72342C23.1919 9.23501 23.5705 9.85672 23.7936 10.5396C24.0167 11.2224 24.0782 11.9477 23.9732 12.6583C23.9649 12.7613 23.8908 12.922 23.9691 13.0044C24.035 13.0498 24.1339 13.0292 24.1545 12.9468C24.2245 12.7078 24.2369 12.4523 24.2616 12.2051C24.2987 11.4428 24.138 10.6765 23.829 9.98012C23.9856 10.0502 24.1256 10.1326 24.2534 10.2479C24.6383 10.6346 24.9275 11.1059 25.098 11.6241C25.2381 12.0238 25.3453 12.4482 25.4071 12.8602C25.4647 13.1487 25.4606 13.4371 25.4936 13.7296C25.5018 13.9892 25.5101 14.257 25.473 14.5125C25.44 15.0275 25.3453 15.5796 25.1475 16.0535C25.0033 16.0246 24.8467 15.9999 24.7025 16.004C24.6613 15.7774 24.7396 15.5014 24.6572 15.283C24.5665 15.2294 24.4511 15.2583 24.4594 15.3777C24.5006 16.6221 24.2328 17.8911 23.7919 19.049C23.3454 20.257 22.6538 21.3597 21.7606 22.2875L21.7235 22.2958C21.979 21.7025 22.1355 21.0597 22.2797 20.4252C22.6773 18.5086 22.842 16.551 22.7701 14.5949C22.7453 14.1664 22.7083 13.7379 22.6423 13.3176C22.6341 13.2558 22.6341 13.194 22.5723 13.1651C22.4899 13.1074 22.3951 13.1857 22.4033 13.2764C22.4322 13.5483 22.4858 13.8285 22.494 14.1004C22.4487 14.2241 22.3869 14.3477 22.3209 14.4589C22.3209 14.2529 22.3127 14.0386 22.2921 13.8326C22.2509 13.6184 22.2468 13.4041 22.1932 13.194C22.1726 12.9838 22.0984 12.7861 22.0943 12.5759C22.0531 12.4729 21.946 12.4358 21.8718 12.5265C21.7894 12.8314 21.6988 13.1404 21.5752 13.433C21.4351 13.0044 21.2867 12.5883 21.1631 12.1557C21.0395 11.7436 20.9241 11.2821 20.7305 10.8907C20.681 10.7918 20.5657 10.7589 20.4956 10.8577C20.4132 11.1008 20.3185 11.3316 20.2649 11.587C20.2196 11.6035 20.1866 11.5294 20.1578 11.5046C19.8941 11.1503 19.6221 10.8248 19.4037 10.4416C19.3378 10.3468 19.2884 10.2026 19.1648 10.1779C19.0865 10.1779 19.0247 10.2397 18.9917 10.3015C18.8722 10.5528 18.8063 10.8124 18.7445 11.0844C18.4684 11.1627 18.2501 11.0184 18.0276 10.8701C17.75 10.6266 17.5328 10.3219 17.393 9.98012C17.3601 9.90595 17.3312 9.82355 17.2323 9.82355C17.1293 9.82355 17.0716 9.88947 17.0016 9.94716C16.878 10.0708 16.8162 10.215 16.7626 10.3757C16.672 10.3922 16.5484 10.3015 16.4536 10.2891C16.1446 10.182 15.8273 10.1078 15.5018 10.0749C15.1037 10.005 14.6937 10.0642 14.3316 10.2438L14.3234 10.1903C14.4058 9.94304 14.5706 9.7123 14.6736 9.47744C14.7107 9.39915 14.7025 9.32911 14.6489 9.25906C14.55 9.19314 14.4058 9.23434 14.3028 9.27142C13.6394 9.5516 13.0378 10.0419 12.4157 10.4169C12.4528 10.3509 12.5022 10.3015 12.4898 10.2191C12.4816 10.1243 12.3662 10.0831 12.2838 10.1326C10.8429 10.7421 9.48484 11.5312 8.24178 12.4812C7.54544 13.0209 6.88207 13.6349 6.32583 14.3147C5.92768 14.8027 5.59905 15.3435 5.34931 15.9216C5.17417 15.6164 5.07787 15.2722 5.06913 14.9204C5.06102 14.3165 5.23005 13.7235 5.55533 13.2146C5.91791 12.613 6.43296 12.1021 6.99332 11.6859C7.94089 10.9966 9.03779 10.5406 10.1948 10.3551C10.2772 10.3303 10.2978 10.2315 10.2484 10.1614C10.1577 10.0914 10.0094 10.1614 9.90227 10.1655C9.34191 10.2809 8.78154 10.454 8.25414 10.6888C8.03164 10.7712 7.81738 10.9113 7.59901 11.002C7.56192 10.8577 7.5166 10.7012 7.52484 10.5487C7.54742 10.3006 7.62332 10.0603 7.74734 9.84415C7.96991 9.47428 8.25745 9.14765 8.59613 8.87999C9.0576 8.50092 9.58501 8.18778 10.1206 7.93232C10.7691 7.63287 11.4472 7.40225 12.1437 7.24422C12.6794 7.13297 13.2274 7.02172 13.7713 7.02172C13.3331 7.17561 12.9278 7.41042 12.5764 7.71394C12.5269 7.75514 12.5269 7.83755 12.5558 7.89523C12.6258 7.95292 12.6794 7.93644 12.7453 7.87875C13.0172 7.63565 13.3304 7.45436 13.6683 7.31839C14.4758 6.98052 15.3329 6.86515 16.2023 6.83219L16.1981 6.83631Z" fill="#B9A05F"/>
<path d="M25.7122 14.6072L25.7163 14.6154C25.91 14.9656 26.1201 15.2829 26.3426 15.6167C26.5898 15.971 26.8618 16.3048 27.109 16.6591C27.4798 17.1865 27.8177 17.7469 28.0731 18.3402C28.4051 19.1285 28.6109 19.9642 28.683 20.8165C28.7242 21.1049 28.7242 21.4098 28.683 21.7024C28.6106 22.4428 28.2777 23.1335 27.7435 23.6513C27.8671 23.2969 27.9248 22.9179 27.9495 22.547C27.9619 22.135 27.9825 21.6941 27.8919 21.2903C27.8735 21.1537 27.8317 21.0213 27.7682 20.8989C27.8177 20.7382 27.8342 20.5693 27.8506 20.4045C27.8465 20.3015 27.6982 20.2726 27.6529 20.3633C27.6075 20.5034 27.6282 20.6435 27.5705 20.7794C27.3232 21.6653 26.734 22.4399 26.0789 23.0745C25.5727 23.5554 25.0144 23.9783 24.4143 24.3353C24.694 23.8425 24.8981 23.3105 25.02 22.7572C25.0323 22.6707 25.0941 22.6089 25.0406 22.5182C24.9953 22.4564 24.8758 22.477 24.814 22.5058C24.2387 22.7726 23.6921 23.097 23.1823 23.4741C22.9063 23.6801 22.6302 23.8738 22.3871 24.121C22.0775 24.4125 21.8453 24.7764 21.7114 25.1799C21.4065 25.044 21.1592 24.8091 20.9532 24.5495C20.8935 24.4741 20.85 24.3871 20.8255 24.2941C21.713 23.7016 22.4886 22.9567 23.1164 22.0938C23.3142 21.8384 23.4707 21.5582 23.6479 21.2986C23.7633 21.2986 23.8745 21.3233 23.9899 21.348C24.2783 21.3892 24.5667 21.3851 24.8511 21.3192C25.3605 21.2042 25.8284 20.9511 26.2034 20.5877C26.5785 20.2243 26.8462 19.7646 26.9771 19.259C27.089 18.869 27.1108 18.4586 27.0409 18.0588C26.9709 17.6591 26.8111 17.2805 26.5733 16.9516C26.2788 16.5527 25.8645 16.2582 25.3908 16.1111C25.568 15.6249 25.6586 15.1222 25.7122 14.6072ZM6.53619 18.1053L6.55679 18.1136H6.56091C6.78323 19.5106 7.32399 20.8378 8.14136 21.9924C8.95873 23.147 10.0308 24.0981 11.2746 24.772C10.5261 24.9761 9.73694 24.9775 8.98779 24.7761C8.8889 24.7555 8.76529 24.6937 8.65816 24.7061C8.60048 24.7061 8.56751 24.7597 8.55927 24.8173C8.55103 25.0028 8.59636 25.1717 8.65816 25.3448C8.06297 25.0555 7.56268 24.6023 7.21605 24.0386C6.84841 23.4464 6.6822 22.7512 6.74221 22.0567C6.75869 21.9496 6.78341 21.8342 6.78341 21.7271C6.77517 21.6241 6.63508 21.5953 6.5774 21.6735C6.54692 21.757 6.52887 21.8444 6.52383 21.9331C6.47545 22.3473 6.49774 22.7666 6.58976 23.1733C6.17431 23.598 5.80423 24.0647 5.48551 24.566L5.45255 24.5619C5.25065 23.9974 5.19297 23.4288 5.16412 22.8355C5.15785 21.1597 5.63417 19.5176 6.53619 18.1053Z" fill="#B9A05F"/>
</g>
</svg>
