<svg width="32" height="33" viewBox="0 0 32 33" fill="none" xmlns="http://www.w3.org/2000/svg">
<mask id="mask0_473_3737" style="mask-type:luminance" maskUnits="userSpaceOnUse" x="0" y="0" width="32" height="33">
<path d="M31.7538 0.709473H0.356934V32.1064H31.7538V0.709473Z" fill="white"/>
</mask>
<g mask="url(#mask0_473_3737)">
<path d="M16.6734 7.49968C18.2381 7.70467 19.7245 8.30602 20.9916 9.24669C21.247 9.44859 21.5066 9.63401 21.7332 9.86474C23.4617 11.4624 24.5191 13.6567 24.6916 16.004C25.1758 16.0485 25.6351 16.2384 26.0094 16.5487C26.3837 16.859 26.6554 17.2753 26.7889 17.7428C26.945 18.3214 26.9197 18.934 26.7163 19.4978C26.5129 20.0615 26.1412 20.5492 25.6516 20.8949C25.1984 21.2121 24.6422 21.3893 24.0859 21.3769C23.8799 21.3769 23.6739 21.311 23.4679 21.3028C23.3896 21.3934 23.3319 21.5047 23.2701 21.6036C22.5202 22.7864 21.5102 23.7824 20.317 24.5157C19.1239 25.2491 17.779 25.7003 16.385 25.8351C15.9318 25.864 15.4827 25.9175 15.0253 25.864C13.4181 25.7869 11.859 25.2905 10.5032 24.4239C9.1473 23.5574 8.04192 22.3511 7.29692 20.9248C6.55193 19.4986 6.19329 17.9022 6.25667 16.2943C6.32004 14.6865 6.80323 13.1233 7.65817 11.7601C8.4306 10.5214 9.48656 9.48426 10.7389 8.73416C11.9912 7.98407 13.4039 7.54257 14.8605 7.44611C15.4621 7.38843 16.0719 7.43375 16.6734 7.49968Z" fill="black"/>
<path fill-rule="evenodd" clip-rule="evenodd" d="M20.9092 9.49404C19.3045 8.27012 17.3315 7.62795 15.3138 7.67286C14.7782 7.66462 14.2343 7.73879 13.7069 7.83767C12.1249 8.1552 10.6576 8.89301 9.4593 9.97357C8.26097 11.0541 7.37585 12.4375 6.89694 13.9784C6.41803 15.5192 6.36303 17.1606 6.73771 18.7301C7.11239 20.2996 7.90291 21.7391 9.02621 22.8975C10.3908 24.3035 12.1768 25.2259 14.1131 25.5249C16.0495 25.8238 18.0305 25.4829 19.7555 24.5538C21.1977 23.7792 22.4008 22.6049 23.2331 21.1958L23.1095 21.1299C22.9941 21.0722 22.8746 21.0062 22.7799 20.9238C22.6892 20.8414 22.7675 20.6849 22.8911 20.7302C22.9529 20.759 23.0147 20.7961 23.0724 20.8291C23.4526 21.0434 23.8865 21.1435 24.3221 21.1172C24.7578 21.0908 25.1765 20.9393 25.5281 20.6807C25.9748 20.3655 26.3133 19.9202 26.4977 19.4055C26.682 18.8909 26.7032 18.3319 26.5582 17.8047C26.4036 17.2684 26.0498 16.8115 25.5693 16.5274C25.2777 16.3591 24.9508 16.261 24.6147 16.241C24.2785 16.221 23.9423 16.2795 23.6328 16.4121C23.5668 16.445 23.4927 16.4739 23.4268 16.4656C23.3237 16.4574 23.3114 16.2926 23.402 16.2514C23.7317 16.0866 24.0819 16.0206 24.4486 15.9877C24.282 13.6676 23.2178 11.5038 21.482 9.95552C21.3007 9.79071 21.1235 9.62178 20.9092 9.48992V9.49404ZM25.3427 17.5781C25.4251 17.5287 25.3963 17.368 25.285 17.3721C25.2026 17.3721 25.112 17.4051 25.0296 17.438L24.9719 17.4545C24.5981 17.5714 24.2439 17.7436 23.9212 17.9654C23.8305 18.0478 23.8305 18.1467 23.9253 18.2209C23.9955 18.2616 24.0669 18.3001 24.1396 18.3363C24.3442 18.4211 24.5272 18.5506 24.6752 18.7153C24.667 18.7936 24.5928 18.8554 24.5351 18.9008L24.5269 18.909C24.3662 19.0326 24.1643 19.115 23.9665 19.1974C23.8635 19.2386 23.7646 19.2798 23.674 19.3251C23.6039 19.3581 23.5668 19.4158 23.608 19.4858C23.6493 19.5682 23.7399 19.5312 23.8141 19.5064L23.8388 19.4982L24.0613 19.4034C24.2838 19.3087 24.5145 19.218 24.6958 19.0738C24.8071 18.9873 24.906 18.8637 24.9183 18.7153C24.8977 18.5752 24.8071 18.4805 24.6999 18.394C24.549 18.2821 24.3892 18.1829 24.222 18.0973L24.1767 18.0726C24.3992 17.949 24.6217 17.8418 24.8606 17.7553L25.0666 17.6853C25.161 17.656 25.2533 17.6202 25.3427 17.5781Z" fill="#F2D3B1"/>
<path d="M18.033 15.1307C18.5192 15.4191 18.8983 15.8559 19.1332 16.3668C19.3763 16.239 19.6111 16.0907 19.8583 15.9712C19.9325 15.93 20.0396 15.9918 20.0232 16.0784C20.0314 16.1402 19.9408 16.1814 19.8995 16.2102L19.2238 16.581C19.4451 17.2465 19.3996 17.9718 19.0968 18.6043C18.794 19.2369 18.2575 19.7272 17.6004 19.9721C17.0132 20.1838 16.3709 20.1867 15.7818 19.9803C15.1927 19.7739 14.6927 19.3708 14.3659 18.839C14.1187 18.4311 13.9828 17.9572 13.9828 17.4793C13.9727 16.8461 14.1881 16.2299 14.5904 15.7409C14.9926 15.2518 15.5557 14.9216 16.1789 14.8093C16.8052 14.6857 17.4809 14.8093 18.033 15.1348V15.1307Z" fill="black"/>
<path d="M16.3519 15.0195C16.6999 14.9754 17.0533 15.0063 17.3884 15.11C17.7235 15.2137 18.0325 15.3879 18.2948 15.6209C18.557 15.8538 18.7664 16.1402 18.9088 16.4607C19.0513 16.7813 19.1236 17.1286 19.1208 17.4793C19.1153 17.9494 18.9747 18.408 18.7158 18.8004C18.457 19.1928 18.0907 19.5025 17.6608 19.6926C17.2309 19.8827 16.7553 19.9452 16.2908 19.8727C15.8264 19.8001 15.3926 19.5955 15.0411 19.2833C14.6897 18.971 14.4354 18.5643 14.3086 18.1117C14.1818 17.659 14.1879 17.1794 14.326 16.73C14.4642 16.2807 14.7286 15.8805 15.0878 15.5773C15.447 15.274 15.8858 15.0804 16.3519 15.0195Z" fill="white"/>
<path d="M9.79239 15.7075C10.2633 15.7348 10.714 15.9082 11.0816 16.2038C11.4493 16.4994 11.7155 16.9023 11.8432 17.3564C11.9709 17.8105 11.9537 18.2932 11.794 18.737C11.6344 19.1809 11.3402 19.5639 10.9524 19.8326C10.5647 20.1013 10.1028 20.2423 9.63115 20.2359C9.15948 20.2296 8.70154 20.0762 8.3212 19.7972C7.94085 19.5182 7.65705 19.1274 7.50937 18.6794C7.36169 18.2314 7.3575 17.7485 7.49737 17.298L7.03177 17.1126C6.94937 17.0796 6.86696 17.0549 6.80928 16.989C6.79279 16.886 6.84224 16.8241 6.94113 16.8365C7.15538 16.8901 7.35316 17.0096 7.56742 17.0672C7.6251 16.9972 7.65806 16.9107 7.70339 16.8324C7.91364 16.4702 8.22016 16.1733 8.58892 15.9747C8.95768 15.7762 9.37425 15.6837 9.79239 15.7075Z" fill="black"/>
<path d="M9.23601 15.9835C9.76273 15.8698 10.313 15.9701 10.7658 16.2621C11.2186 16.5542 11.5369 17.0142 11.6505 17.5409C11.7642 18.0677 11.6639 18.618 11.3718 19.0708C11.0798 19.5236 10.6198 19.8418 10.093 19.9555C9.56632 20.0691 9.01602 19.9689 8.56321 19.6768C8.11041 19.3847 7.79217 18.9247 7.67852 18.398C7.56488 17.8712 7.66512 17.321 7.9572 16.8681C8.24929 16.4153 8.70929 16.0971 9.23601 15.9835Z" fill="white"/>
<path d="M17.5509 16.4657C17.6946 16.4483 17.8403 16.4614 17.9786 16.5044C18.1168 16.5473 18.2444 16.6189 18.353 16.7147C18.4616 16.8104 18.5487 16.928 18.6086 17.0598C18.6684 17.1916 18.6998 17.3346 18.7004 17.4793C18.684 17.6771 18.6263 17.879 18.5109 18.0397C18.4243 18.1655 18.3104 18.2702 18.1777 18.3458C18.045 18.4214 17.8969 18.4661 17.7445 18.4764C17.4067 18.497 17.0688 18.3405 16.871 18.0644C16.6238 17.7348 16.6114 17.2486 16.8463 16.9107C16.9252 16.7915 17.0284 16.6903 17.1491 16.6136C17.2698 16.5369 17.4053 16.4865 17.5468 16.4657H17.5509ZM10.5504 17.0055C10.7006 16.9886 10.8526 17.0078 10.9938 17.0615C11.135 17.1153 11.2613 17.202 11.3621 17.3145C11.527 17.4958 11.6094 17.7265 11.597 17.9738C11.597 18.4682 11.1561 18.9132 10.6576 18.8926C10.4119 18.8916 10.1761 18.7953 10.0001 18.6239C9.82406 18.4525 9.72149 18.2194 9.71401 17.9738C9.70531 17.7366 9.78673 17.5048 9.9419 17.3252C10.0971 17.1456 10.3145 17.0314 10.5504 17.0055Z" fill="black"/>
<path d="M15.2805 13.1281C15.536 13.1075 15.8203 13.1034 16.0428 13.2517C16.1157 13.2968 16.1728 13.3635 16.206 13.4425C16.2392 13.5215 16.247 13.609 16.2282 13.6926C16.1623 13.944 15.9521 14.1417 15.7502 14.2859C15.3755 14.5461 14.9425 14.7102 14.4894 14.7639C14.2587 14.7845 13.9744 14.7804 13.7684 14.6568C13.694 14.6159 13.6337 14.5535 13.5955 14.4778C13.5572 14.402 13.5428 14.3165 13.5541 14.2324C13.5953 13.9934 13.7807 13.7997 13.9661 13.6555C14.3411 13.3671 14.8108 13.1899 15.2846 13.1281H15.2805ZM9.8829 13.8203C10.2577 13.7863 10.6342 13.8622 10.9665 14.0387C11.1272 14.1294 11.2714 14.2818 11.2962 14.4714C11.3085 14.6444 11.2138 14.7927 11.0778 14.8916C10.8924 15.04 10.674 15.0976 10.4433 15.1388C10.0312 15.1801 9.59448 15.1512 9.22777 14.9493C9.06707 14.8587 8.90226 14.7103 8.88166 14.5167C8.8487 14.3395 8.96407 14.1665 9.10004 14.0676C9.33254 13.9131 9.60388 13.8275 9.8829 13.8203Z" fill="black"/>
<path d="M15.7674 20.487C15.9685 20.5234 16.1581 20.6071 16.3207 20.731C16.4833 20.8549 16.6142 21.0155 16.7027 21.1998C16.8325 21.5079 16.8821 21.8438 16.8469 22.1763C16.7818 22.6473 16.5648 23.0842 16.2289 23.4206C15.8601 23.81 15.384 24.081 14.8609 24.1994C14.0209 24.3937 13.1481 24.3979 12.3063 24.2117C11.7148 24.0812 11.1669 23.8002 10.7159 23.3959C10.5304 23.2229 10.345 23.021 10.2626 22.7779C10.2071 22.6198 10.1844 22.4521 10.1957 22.2849C10.207 22.1177 10.2522 21.9546 10.3285 21.8055C10.4645 21.5459 10.7365 21.3728 11.029 21.3646C11.5523 21.3357 12.0138 21.5376 12.5123 21.5624C12.8337 21.5624 13.1675 21.517 13.4682 21.3976C13.9338 21.1998 14.3459 20.8001 14.8197 20.6106C15.1246 20.487 15.4419 20.421 15.7674 20.487Z" fill="black"/>
<path d="M15.8906 20.7712C16.1791 20.8742 16.4139 21.0967 16.5128 21.3893C16.3892 21.4923 16.2738 21.5953 16.142 21.6901C15.9936 21.7972 15.8453 21.8714 15.7341 22.0197C15.6022 22.1845 15.4868 22.4276 15.3055 22.5347C15.1655 22.5182 15.0336 22.4152 14.9018 22.3699C14.8029 22.3411 14.6793 22.3864 14.5804 22.4111C14.0802 22.5496 13.566 22.6311 13.0476 22.6542C12.9147 22.654 12.7821 22.6679 12.6521 22.6954C12.6521 22.7449 12.6521 22.7943 12.6644 22.8438C12.7427 22.9056 12.8704 22.8973 12.9652 22.9056C13.5956 22.8808 14.2137 22.7737 14.8193 22.6048C14.9718 22.6048 15.2067 22.819 15.3921 22.749C15.6104 22.646 15.7629 22.3782 15.903 22.1886C15.9813 22.0733 16.0884 22.0238 16.1955 21.9455C16.3356 21.8549 16.4634 21.7519 16.5911 21.6447C16.6292 21.8772 16.6236 22.1148 16.5746 22.3452C16.484 22.7284 16.2409 23.0827 15.9566 23.3547C15.5309 23.7366 14.9964 23.9758 14.4279 24.0386C13.9302 24.1148 13.4246 24.1258 12.924 24.0716C12.1924 24.0124 11.4964 23.7306 10.9298 23.264C10.7237 23.0704 10.526 22.8973 10.4683 22.6048C10.3735 22.2504 10.4848 21.7519 10.8844 21.6365C11.2223 21.5541 11.6179 21.6571 11.9557 21.7271C12.4502 21.8425 12.9858 21.826 13.4679 21.6571C14.0447 21.4552 14.498 20.9566 15.0666 20.7795C15.3322 20.6825 15.6231 20.6796 15.8906 20.7712Z" fill="white"/>
<path d="M12.8413 5.50142C13.447 5.46022 14.0527 5.61679 14.5966 5.87637C15.2024 6.14403 15.69 6.62293 15.9687 7.22372C16.0099 7.33085 16.0181 7.42974 15.9398 7.51626C15.878 7.5451 15.7956 7.54098 15.7338 7.55747C15.6102 7.59867 15.5154 7.69756 15.466 7.81705C15.3506 8.07663 15.3053 8.36917 15.2147 8.64111C15.124 8.92954 15.0004 9.19736 14.7944 9.42397C14.2465 10.0076 13.5384 10.4161 12.7589 10.5983C12.1486 10.7526 11.5077 10.7384 10.9048 10.5571C10.5875 10.4623 10.3238 10.2522 10.1466 9.9761C10.1137 9.92253 10.1384 9.83189 10.2126 9.82777C10.398 9.81128 10.5752 9.80716 10.7482 9.72888C10.9872 9.63411 11.119 9.40749 11.1603 9.16027C11.2056 8.81417 11.1396 8.50514 11.1026 8.16315C11.0219 7.72504 11.0163 7.27639 11.0861 6.83641C11.152 6.52738 11.2962 6.24308 11.527 6.0247C11.8882 5.69786 12.3544 5.51082 12.8413 5.4973V5.50142Z" fill="black"/>
<path d="M12.759 5.74446C13.307 5.68678 13.8838 5.82687 14.3865 6.04525C14.9757 6.31719 15.499 6.7045 15.7709 7.31019C15.6567 7.33285 15.5499 7.38347 15.46 7.45754C15.3701 7.5316 15.3 7.62678 15.2559 7.73458C15.0787 8.14249 15.0334 8.60397 14.7985 9.01188C14.6199 9.28138 14.392 9.51481 14.1269 9.69998C13.4094 10.2413 12.5234 10.5114 11.6259 10.4622C11.2221 10.4128 10.8018 10.3551 10.5093 10.0502C10.6627 10.0224 10.8112 9.97244 10.9502 9.90187C11.1933 9.75766 11.3498 9.50632 11.3951 9.23026C11.4528 8.73994 11.3498 8.31555 11.3045 7.83759C11.2715 7.62333 11.2798 7.39671 11.2839 7.17834C11.3045 6.82399 11.4199 6.46964 11.6753 6.2183C11.9716 5.94089 12.3541 5.77362 12.759 5.74446Z" fill="#AC6511"/>
</g>
</svg>
