<svg width="32" height="32" viewBox="0 0 32 32" fill="none" xmlns="http://www.w3.org/2000/svg">
<g clip-path="url(#clip0_473_3678)">
<mask id="mask0_473_3678" style="mask-type:luminance" maskUnits="userSpaceOnUse" x="0" y="0" width="32" height="32">
<path d="M31.3371 0.924561H0.725098V31.5365H31.3371V0.924561Z" fill="white"/>
</mask>
<g mask="url(#mask0_473_3678)">
<path d="M16.6336 7.54504C18.1591 7.74491 19.6083 8.33123 20.8437 9.24838C21.0928 9.44523 21.3459 9.62601 21.5668 9.85098C23.2521 11.4087 24.283 13.5481 24.4513 15.8368C24.9233 15.8802 25.3712 16.0653 25.7361 16.3679C26.1011 16.6704 26.366 17.0763 26.4961 17.5321C26.6483 18.0962 26.6236 18.6935 26.4253 19.2432C26.227 19.7929 25.8647 20.2683 25.3873 20.6053C24.9454 20.9147 24.403 21.0874 23.8607 21.0754C23.6598 21.0754 23.459 21.0111 23.2581 21.0031C23.1818 21.0914 23.1255 21.1999 23.0653 21.2963C22.3341 22.4496 21.3494 23.4207 20.186 24.1357C19.0227 24.8507 17.7115 25.2907 16.3523 25.4221C15.9104 25.4502 15.4725 25.5025 15.0266 25.4502C13.4596 25.3751 11.9395 24.8911 10.6175 24.0462C9.29556 23.2014 8.21781 22.0252 7.49144 20.6346C6.76507 19.244 6.4154 17.6875 6.47719 16.1198C6.53898 14.5522 7.01009 13.028 7.84366 11.6989C8.59678 10.4913 9.62633 9.48001 10.8473 8.74866C12.0683 8.01732 13.4458 7.58686 14.8659 7.49281C15.4525 7.43657 16.047 7.48076 16.6336 7.54504Z" fill="black"/>
<path fill-rule="evenodd" clip-rule="evenodd" d="M20.7632 9.48948C19.1986 8.29615 17.2749 7.67003 15.3076 7.71382C14.7854 7.70579 14.2551 7.7781 13.7409 7.87451C12.1984 8.1841 10.7678 8.90347 9.59948 9.95701C8.43111 11.0106 7.56811 12.3594 7.10118 13.8617C6.63424 15.364 6.58061 16.9644 6.94592 18.4946C7.31124 20.0249 8.082 21.4284 9.17722 22.5578C10.5077 23.9287 12.249 24.8281 14.137 25.1195C16.0249 25.411 17.9564 25.0786 19.6383 24.1728C21.0444 23.4175 22.2174 22.2726 23.0289 20.8987L22.9084 20.8344C22.7959 20.7781 22.6794 20.7139 22.587 20.6335C22.4986 20.5532 22.575 20.4005 22.6955 20.4447C22.7558 20.4728 22.816 20.509 22.8723 20.5411C23.2429 20.7501 23.666 20.8477 24.0908 20.822C24.5155 20.7963 24.9238 20.6486 25.2666 20.3965C25.7021 20.0892 26.0322 19.655 26.2119 19.1532C26.3916 18.6514 26.4122 18.1063 26.2709 17.5924C26.1201 17.0695 25.7752 16.624 25.3068 16.347C25.0224 16.1829 24.7037 16.0873 24.376 16.0677C24.0482 16.0482 23.7204 16.1053 23.4186 16.2346C23.3543 16.2667 23.282 16.2948 23.2177 16.2868C23.1173 16.2787 23.1053 16.1181 23.1936 16.0779C23.515 15.9172 23.8565 15.8529 24.214 15.8208C24.0516 13.5587 23.014 11.449 21.3216 9.93942C21.1448 9.77872 20.9721 9.61401 20.7632 9.48546V9.48948ZM25.0858 17.3715C25.1661 17.3232 25.138 17.1666 25.0296 17.1706C24.9492 17.1706 24.8608 17.2027 24.7805 17.2349L24.7242 17.2509C24.3598 17.3649 24.0145 17.5328 23.6998 17.7491C23.6114 17.8294 23.6114 17.9258 23.7038 17.9982C23.7723 18.0379 23.8419 18.0754 23.9127 18.1106C24.1122 18.1933 24.2907 18.3196 24.435 18.4802C24.427 18.5566 24.3546 18.6168 24.2984 18.661L24.2904 18.6691C24.1337 18.7896 23.9368 18.8699 23.744 18.9503C23.6436 18.9904 23.5472 19.0306 23.4588 19.0748C23.3905 19.1069 23.3543 19.1632 23.3945 19.2315C23.4347 19.3118 23.5231 19.2757 23.5954 19.2516L23.6195 19.2435L23.8364 19.1511C24.0534 19.0587 24.2783 18.9703 24.4551 18.8297C24.5636 18.7454 24.66 18.6249 24.672 18.4802C24.6519 18.3436 24.5636 18.2512 24.4591 18.1669C24.312 18.0578 24.1561 17.9611 23.9931 17.8776L23.9489 17.8535C24.1658 17.733 24.3828 17.6286 24.6158 17.5442L24.8166 17.4759C24.9087 17.4473 24.9986 17.4124 25.0858 17.3715Z" fill="#ECAD80"/>
<path d="M16.7137 15.447C17.1717 15.4188 17.6176 15.447 18.0474 15.6197C18.2776 15.7011 18.4893 15.8276 18.67 15.9917C18.8508 16.1559 18.9969 16.3545 19.1 16.5758C19.1562 16.7084 19.2245 16.8771 19.1884 17.0218C19.0678 17.1503 18.8469 17.0619 18.6862 17.0619C18.176 17.0378 17.6618 17.0459 17.1596 17.086C16.5972 17.1262 16.0147 17.1543 15.4723 17.2989C15.1284 17.3743 14.7901 17.4737 14.46 17.5962C14.3113 17.6444 14.1868 17.7167 14.0181 17.6846C14.0743 17.0097 14.5403 16.4232 15.0786 16.0375C15.5655 15.7066 16.1277 15.5035 16.7137 15.447Z" fill="black"/>
<path d="M17.2763 15.6761C17.749 15.7056 18.1991 15.889 18.5578 16.1983C18.7546 16.3791 18.8912 16.6121 18.9635 16.8692C18.2926 16.7808 17.5856 16.833 16.9147 16.8692C16.6054 16.9094 16.296 16.9094 15.9907 16.9616C16.0389 16.592 16.0791 16.2224 16.0309 15.8488C16.4326 15.7042 16.8464 15.6278 17.2763 15.6761Z" fill="white"/>
<path d="M9.08904 16.4191C9.78832 16.2996 10.5075 16.4155 11.1339 16.7485C11.4834 16.9413 11.8128 17.2306 11.9614 17.6122C11.9895 17.6926 12.0257 17.793 11.9333 17.8533C11.8248 17.8533 11.7164 17.8251 11.6119 17.8091C11.2343 17.7368 10.8326 17.7247 10.4469 17.7046C10.017 17.6886 9.5912 17.7247 9.16135 17.7287C8.65918 17.7649 8.16505 17.8492 7.67494 17.9296C7.57451 17.9537 7.54639 17.8332 7.54639 17.7609C7.55442 17.2627 7.91196 16.865 8.34182 16.6561C8.58286 16.5557 8.83193 16.4713 9.08904 16.4151V16.4191Z" fill="black"/>
<path d="M15.0226 16.3628C14.9985 16.644 14.9985 16.9051 15.0226 17.1823C14.7775 17.2557 14.535 17.3374 14.2955 17.4274C14.4318 17.0117 14.6824 16.6427 15.0186 16.3628H15.0226ZM9.30599 16.6078C9.7037 16.5837 10.0974 16.6078 10.479 16.7244C10.9837 16.8455 11.4233 17.1543 11.7083 17.5881C10.8968 17.4475 10.1014 17.4836 9.2859 17.4917C9.31804 17.1944 9.31001 16.9011 9.30599 16.6078ZM8.33782 16.8971C8.32576 17.1301 8.32576 17.3631 8.33782 17.6001C8.149 17.6122 7.96019 17.6282 7.77539 17.6684C7.83967 17.3872 7.98027 17.1823 8.20123 17.0015L8.33782 16.8971Z" fill="white"/>
<path d="M10.8966 13.2496C10.6757 12.9603 10.3141 12.876 9.9646 12.9161C9.44652 13.0057 8.96527 13.2428 8.57863 13.5991C8.13446 13.9814 7.79329 14.4689 7.58635 15.0172C7.55823 15.0975 7.53412 15.206 7.62652 15.2502C7.71089 15.2582 7.74302 15.2502 7.79123 15.1819C8.25143 14.5731 8.85248 14.0851 9.54278 13.7598C9.87598 13.6046 10.2398 13.5263 10.6074 13.5308C10.6475 13.5308 10.6917 13.5388 10.7359 13.5469C10.8042 13.5589 10.8685 13.571 10.9368 13.5589C11.0493 13.4705 10.9649 13.346 10.8966 13.2576V13.2496ZM18.0756 13.9848C17.3486 13.565 16.5406 13.3048 15.7054 13.2215C15.3036 13.1933 14.8456 13.2174 14.4761 13.3902C14.2029 13.5147 13.9779 13.7317 13.9297 14.041L13.9257 14.0812C13.9096 14.1937 13.8855 14.3503 13.9779 14.4307C14.0583 14.4628 14.1225 14.4186 14.1868 14.3744L14.2792 14.3182C14.8554 14.0601 15.4798 13.9273 16.1111 13.9285C16.7338 13.9285 17.3725 14.0129 17.9591 14.2178L17.9792 14.2218C18.0394 14.2378 18.0876 14.2539 18.1358 14.1977C18.2081 14.1213 18.1559 14.0289 18.0756 13.9888V13.9848Z" fill="black"/>
<path d="M14.1829 20.742C14.3035 20.738 14.428 20.738 14.5525 20.754L14.6007 20.8504L14.5525 20.9509C14.2432 20.983 13.9299 20.9509 13.6205 20.975L10.246 20.9991C10.1777 20.9991 10.0612 20.975 10.0692 20.8906C10.0491 20.8223 10.1415 20.758 10.2018 20.7621L14.1789 20.742H14.1829Z" fill="black"/>
<path fill-rule="evenodd" clip-rule="evenodd" d="M17.4369 14.3062C18.0536 14.3957 18.6308 14.6629 19.0983 15.075C19.5657 15.4871 19.9031 16.0264 20.0692 16.627C20.2353 17.2276 20.223 17.8636 20.0338 18.4573C19.8446 19.051 19.4866 19.5768 19.0036 19.9706C18.4887 20.3962 17.8534 20.6499 17.1869 20.6961C16.5204 20.7422 15.8562 20.5784 15.2876 20.2277C14.8124 19.9365 14.421 19.5268 14.152 19.0387C13.8829 18.5506 13.7454 18.001 13.753 17.4437C13.5521 17.2308 13.3231 17.058 13.0178 17.054C12.7045 17.058 12.4434 17.283 12.3268 17.5602C12.355 17.8294 12.3871 18.0945 12.351 18.3637C12.2908 19.0051 12.0117 19.6063 11.5604 20.0662C11.1091 20.526 10.5133 20.8164 9.87303 20.8885C9.23281 20.9606 8.58727 20.8101 8.04499 20.4622C7.50271 20.1143 7.09677 19.5903 6.89543 18.9783C6.71403 18.4453 6.6975 17.8701 6.84799 17.3276C6.99849 16.7851 7.30902 16.3005 7.73907 15.9372C8.25973 15.4966 8.92105 15.2571 9.60311 15.2623C10.1816 15.2715 10.7432 15.4594 11.2107 15.8004C11.6782 16.1413 12.0288 16.6185 12.2144 17.1665C12.4112 16.9375 12.6683 16.7648 12.9777 16.7648C13.2749 16.7527 13.5481 16.8692 13.7691 17.058C13.8374 16.7085 13.9217 16.3751 14.0905 16.0537C14.3926 15.4466 14.879 14.9507 15.48 14.6368C16.0811 14.3229 16.7661 14.2072 17.4369 14.3062ZM16.4125 14.6195C16.8641 14.5301 17.3305 14.5492 17.7732 14.6752C18.216 14.8012 18.6226 15.0305 18.9595 15.3442C19.2964 15.658 19.554 16.0473 19.7111 16.48C19.8683 16.9127 19.9204 17.3766 19.8633 17.8334C19.7995 18.3689 19.5886 18.8763 19.2541 19.2994C18.9195 19.7224 18.4743 20.0445 17.9679 20.2301C17.4615 20.4156 16.9136 20.4573 16.3849 20.3504C15.8563 20.2436 15.3675 19.9925 14.9728 19.625C14.5781 19.2574 14.2929 18.7877 14.1488 18.268C14.0048 17.7482 14.0074 17.1987 14.1565 16.6804C14.3056 16.1621 14.5952 15.6952 14.9934 15.3314C15.3916 14.9676 15.8828 14.7212 16.4125 14.6195ZM10.4909 15.7444C10.1696 15.6126 9.82445 15.5488 9.47724 15.5571C9.13004 15.5653 8.7883 15.6454 8.47358 15.7922C8.15885 15.9391 7.87795 16.1495 7.64858 16.4103C7.4192 16.6711 7.24633 16.9766 7.14086 17.3075C7.03538 17.6384 6.99959 17.9875 7.03573 18.3329C7.07188 18.6784 7.17917 19.0125 7.35086 19.3144C7.52255 19.6163 7.75491 19.8794 8.03329 20.087C8.31168 20.2947 8.63006 20.4424 8.96837 20.521C9.59105 20.6575 10.2579 20.5732 10.8123 20.2518C11.12 20.0714 11.3863 19.8284 11.594 19.5384C11.8016 19.2484 11.9459 18.9179 12.0175 18.5685C12.1323 17.9931 12.0426 17.3957 11.7639 16.8793C11.4852 16.363 11.035 15.9602 10.4909 15.7403V15.7444Z" fill="black"/>
<path d="M16.8341 7.36422C17.6858 7.45662 18.5535 7.60526 19.3771 7.86237C19.6462 7.95477 19.9315 8.04315 20.1805 8.18376C20.2729 8.24 20.2207 8.32436 20.1645 8.38462C19.9716 8.32035 19.7909 8.22795 19.598 8.16367C19.0433 7.98153 18.4751 7.84318 17.8987 7.74989C17.2559 7.63338 16.6132 7.55706 15.9624 7.53295C14.6768 7.45543 13.3872 7.59117 12.1459 7.93468C11.9169 7.99093 11.704 8.06725 11.471 8.09939C11.4509 7.99896 11.3987 7.91861 11.5232 7.87041C12.2624 7.64544 13.0136 7.46867 13.781 7.37628C14.7948 7.25505 15.8193 7.251 16.8341 7.36422Z" fill="black"/>
<path d="M14.8255 8.02305C14.93 8.03109 14.9862 8.09134 14.9541 8.19178C14.9019 8.28819 14.7653 8.29623 14.6729 8.32435C13.4918 8.56137 12.3428 8.90284 11.218 9.32868C11.0171 9.39697 10.8283 9.48134 10.6274 9.54561C11.8878 9.25297 13.1671 9.04892 14.456 8.93498C14.7934 8.91489 15.1309 8.8707 15.4683 8.86267C15.7656 8.86267 16.0548 8.83053 16.3521 8.83455C16.8864 8.83455 17.4247 8.81848 17.9591 8.85463C18.2403 8.8707 18.5375 8.85865 18.8107 8.91891C18.883 8.92695 18.9071 8.97515 18.9473 9.0314L18.883 9.13585C18.6942 9.13585 18.5094 9.11576 18.3206 9.09567C17.8586 9.07157 17.3966 9.0555 16.9306 9.06354C16.0026 9.04747 15.0666 9.10371 14.1426 9.19209C12.7365 9.3327 11.3546 9.59784 9.98467 9.93931C9.87621 9.9594 9.71953 10.0197 9.62312 9.93931C9.60303 9.88709 9.59098 9.79871 9.6432 9.76255C9.77577 9.66212 9.9445 9.60186 10.0972 9.52955C11.34 8.99506 12.6262 8.56767 13.9417 8.25204C13.7288 8.28016 13.5119 8.28819 13.299 8.30025C12.1926 8.37356 11.0952 8.54838 10.0208 8.8225C9.98467 8.76224 9.94048 8.72206 9.96459 8.64172C10.065 8.56137 10.1976 8.53325 10.3221 8.50111L10.8283 8.4047C11.4872 8.26007 12.154 8.18374 12.8249 8.11143C13.4878 8.05921 14.1466 7.99895 14.8296 8.02305H14.8255ZM20.6105 8.47299C20.7069 8.46094 20.7672 8.46496 20.8435 8.5212C21.1368 8.72206 21.4381 8.96712 21.6228 9.27645C21.7715 9.51749 21.8317 9.78264 21.8237 10.0638C22.2978 10.1683 22.6674 10.4535 22.9727 10.8151C23.3769 11.323 23.6884 11.8982 23.8926 12.5144C24.2557 13.5973 24.4587 14.7273 24.4952 15.8689C24.4992 15.9573 24.4671 16.0296 24.3787 16.0497C24.2221 16.0577 24.0694 16.0416 23.9127 16.0818C23.8043 16.1019 23.6717 16.1621 23.5632 16.134C23.5471 16.0818 23.5311 16.0296 23.523 15.9733C23.756 15.8769 24.0051 15.8367 24.2622 15.8367C24.202 14.5793 23.981 13.2737 23.4829 12.1127C23.3222 11.7351 23.1133 11.3695 22.8642 11.0441C22.6737 10.7923 22.4329 10.583 22.1572 10.4294C21.9965 10.341 21.8237 10.3089 21.6429 10.2527L21.6108 10.1723C21.6389 9.87102 21.5746 9.58177 21.3979 9.33671C21.1809 9.01533 20.8837 8.8466 20.5904 8.6136C20.5944 8.56539 20.6024 8.51718 20.6145 8.47299H20.6105Z" fill="black"/>
<path d="M13.4679 9.58185C13.7089 9.56578 13.95 9.58185 14.191 9.58185C14.9945 9.58988 15.7939 9.58185 16.5934 9.58988C17.0634 9.58185 17.5294 9.61801 17.9994 9.63006C18.1923 9.64211 18.3891 9.65416 18.5699 9.71442C18.6583 9.74656 18.7025 9.84699 18.6502 9.92734C18.59 10.0157 18.4494 10.0358 18.3529 10.0639C17.9673 10.1483 17.5776 10.2126 17.1879 10.2648C17.8588 10.2487 18.5498 10.1925 19.2167 10.2527C19.2729 10.2648 19.3452 10.2648 19.3934 10.3009C19.4055 10.3451 19.4015 10.3893 19.3894 10.4295C19.3332 10.4737 19.2689 10.4576 19.2046 10.4616C18.2043 10.4134 17.2281 10.5058 16.2318 10.5621C16.0711 10.5701 15.9104 10.5862 15.7497 10.5621C15.6453 10.5581 15.6131 10.4094 15.6895 10.3451C15.7819 10.2809 15.9144 10.2648 16.0229 10.2367C16.7259 10.0961 17.437 10.0157 18.14 9.87511C17.7062 9.83494 17.2683 9.83092 16.8344 9.82691C15.7216 9.80682 14.6088 9.81887 13.5 9.80682C13.4438 9.79878 13.3514 9.79477 13.3514 9.72647C13.3112 9.6622 13.3996 9.58185 13.4679 9.58185ZM19.8394 10.9196L19.9719 10.9116C20.0362 11.0642 20.0724 11.2209 20.1246 11.3736C20.3656 12.1007 20.7794 12.7716 21.3017 13.33C21.5615 13.6128 21.8621 13.8551 22.1935 14.0491C22.2658 14.0973 22.3502 14.1214 22.3502 14.2259C22.3261 14.3464 22.2216 14.3022 22.1292 14.3102C22.1011 14.949 22.0087 15.5918 21.8641 16.2104C21.8199 16.3631 21.7998 16.568 21.6793 16.6764C21.6349 16.6536 21.592 16.6281 21.5507 16.6001C21.5427 16.5077 21.5668 16.4193 21.5909 16.3309C21.7235 15.885 21.7918 15.411 21.8641 14.953C21.8922 14.6879 21.9243 14.4147 21.9083 14.1495C21.6592 13.9808 21.4302 13.788 21.2173 13.5751C20.5782 12.9227 20.108 12.1243 19.8474 11.249C19.8193 11.1285 19.767 11.0281 19.8434 10.9156L19.8394 10.9196ZM23.3264 15.881C23.3987 15.9493 23.3224 15.9975 23.2822 16.0497C22.8582 16.2225 22.4771 16.4857 22.1654 16.8211C22.0609 16.9175 22.0007 17.03 21.844 17.0219L21.7958 16.9376C21.8119 16.8853 21.8239 16.8371 21.8641 16.801C22.231 16.4005 22.6769 16.0804 23.1737 15.8609C23.234 15.8408 23.2862 15.8207 23.3304 15.881H23.3264ZM22.7599 16.6162C22.8644 16.576 22.9407 16.6443 22.9046 16.7528C22.7961 16.8492 22.6635 16.9135 22.551 17.0059C22.3462 17.1746 22.1614 17.3674 21.9886 17.5683C21.9234 17.6366 21.8506 17.6972 21.7717 17.7491L21.6793 17.6406C21.6793 17.5482 21.7677 17.4719 21.8239 17.4036C22.0971 17.1224 22.4064 16.7929 22.7599 16.6162Z" fill="black"/>
<path d="M15.9626 7.53295C16.6134 7.55706 17.2602 7.63339 17.8989 7.74989C18.4753 7.84318 19.0435 7.98154 19.5983 8.16367C19.7911 8.22795 19.9719 8.32437 20.1647 8.38463C20.3174 8.44087 20.462 8.5172 20.5905 8.61361C20.8838 8.84662 21.1811 9.01535 21.398 9.33673C21.5748 9.58179 21.6391 9.87103 21.6109 10.1723L21.6431 10.2527C21.8239 10.3089 21.9966 10.3411 22.1573 10.4294C22.4385 10.5741 22.6675 10.799 22.8643 11.0441C23.1134 11.3695 23.3183 11.7351 23.483 12.1127C23.9812 13.2777 24.2061 14.5793 24.2624 15.8368C24.0053 15.8368 23.7562 15.8769 23.5232 15.9733L23.2821 16.0497C23.3223 15.9974 23.3986 15.9492 23.3263 15.8809C23.2862 15.8207 23.2339 15.8408 23.1737 15.8568C22.6514 16.0657 22.2537 16.4152 21.864 16.8009C21.8239 16.8411 21.8118 16.8853 21.7957 16.9375C21.7515 16.8531 21.7154 16.7648 21.6752 16.6764C21.7997 16.5679 21.8198 16.363 21.864 16.2104C22.0086 15.5917 22.1051 14.9489 22.1292 14.3142C22.2216 14.3021 22.326 14.3423 22.3501 14.2258C22.3501 14.1173 22.2698 14.0973 22.1934 14.049C21.862 13.8551 21.5614 13.6127 21.3016 13.3299C20.7742 12.7692 20.3728 12.1022 20.1245 11.3735C20.0723 11.2209 20.0361 11.0642 19.9719 10.9115C19.9076 10.7348 19.8915 10.5339 19.8433 10.3491C19.6388 10.2929 19.4285 10.2605 19.2166 10.2527C18.5497 10.1924 17.8588 10.2527 17.1879 10.2687C17.5775 10.2125 17.9672 10.1482 18.3529 10.0639C18.4493 10.0357 18.5899 10.0157 18.6502 9.92728C18.7024 9.84693 18.6582 9.7465 18.5698 9.71436C18.3841 9.66248 18.1922 9.63546 17.9994 9.63401C17.5293 9.61794 17.0633 9.58179 16.5933 9.59384C15.7898 9.58179 14.9904 9.58982 14.1909 9.57777C14.7212 9.50546 15.2395 9.35682 15.7698 9.27245C16.1554 9.20818 16.5411 9.12381 16.9308 9.06355C17.3943 9.05803 17.8579 9.06875 18.3207 9.09569C18.5096 9.11578 18.6944 9.13586 18.8832 9.13586L18.9475 9.03141C18.9073 8.97517 18.8832 8.92696 18.8109 8.91893C18.5377 8.85867 18.2404 8.87072 17.9592 8.85465C17.4249 8.8185 16.8866 8.83457 16.3523 8.83457C16.055 8.83055 15.7657 8.86269 15.4685 8.86269C15.131 8.87072 14.7935 8.91491 14.4561 8.935C13.1672 9.04894 11.8879 9.25298 10.6276 9.54563C10.8284 9.48135 11.0213 9.39699 11.2181 9.32468C12.343 8.90286 13.4919 8.56139 14.673 8.32035C14.7654 8.29625 14.902 8.28821 14.9542 8.19179C14.9864 8.09136 14.9301 8.0311 14.8297 8.02307C14.1468 7.99896 13.4879 8.05922 12.821 8.11145C12.152 8.1731 11.4869 8.271 10.8284 8.40471L10.3223 8.50113C10.6999 8.35249 11.0815 8.21992 11.4712 8.0994C11.7042 8.06726 11.9171 7.99093 12.1421 7.93067C13.3847 7.58671 14.6756 7.45097 15.9626 7.52894V7.53295Z" fill="#E5D7A3"/>
</g>
</g>
<defs>
<clipPath id="clip0_473_3678">
<rect width="30.612" height="30.612" fill="white" transform="translate(0.725098 0.924561)"/>
</clipPath>
</defs>
</svg>
