<svg width="34" height="32" viewBox="0 0 34 32" fill="none" xmlns="http://www.w3.org/2000/svg">
<path d="M18.6967 4.03778C21.0224 4.34416 23.2316 5.24294 25.1149 6.64887C25.4946 6.95062 25.8804 7.22774 26.2173 7.5726C28.7864 9.96039 30.358 13.24 30.6145 16.7484C31.3341 16.8149 32.0169 17.0986 32.5732 17.5624C33.1295 18.0262 33.5334 18.6484 33.7317 19.3471C33.9638 20.2119 33.9261 21.1275 33.6238 21.9701C33.3215 22.8127 32.7691 23.5416 32.0414 24.0582C31.3677 24.5324 30.541 24.7972 29.7142 24.7787C29.408 24.7787 29.1018 24.6802 28.7956 24.6678C28.6792 24.8033 28.5935 24.9696 28.5016 25.1174C27.387 26.8853 25.8858 28.3739 24.1123 29.4699C22.3389 30.566 20.34 31.2404 18.268 31.4419C17.5943 31.485 16.9268 31.5651 16.247 31.485C13.8581 31.3698 11.5408 30.6278 9.52551 29.3327C7.51025 28.0377 5.86726 26.2346 4.75994 24.103C3.65262 21.9713 3.11956 19.5853 3.21376 17.1823C3.30796 14.7792 4.02614 12.4428 5.29688 10.4054C6.44499 8.5541 8.0145 7.00393 9.87586 5.88284C11.7372 4.76174 13.8371 4.10188 16.002 3.95772C16.8962 3.87151 17.8026 3.93925 18.6967 4.03778Z" fill="#0A3D62"/>
<path fill-rule="evenodd" clip-rule="evenodd" d="M24.9922 7.0182C22.6071 5.18893 19.6745 4.22914 16.6755 4.29627C15.8793 4.28395 15.0709 4.3948 14.287 4.54259C11.9356 5.01717 9.75476 6.1199 7.97363 7.7349C6.19251 9.34989 4.8769 11.4175 4.16508 13.7205C3.45325 16.0234 3.3715 18.4767 3.9284 20.8224C4.48531 23.1681 5.66031 25.3196 7.32991 27.0509C9.35813 29.1523 12.0127 30.531 14.8908 30.9778C17.7689 31.4245 20.7134 30.915 23.2774 29.5265C25.4209 28.3688 27.2092 26.6137 28.4463 24.5075L28.2625 24.409C28.0911 24.3228 27.9135 24.2243 27.7726 24.1011C27.6379 23.9779 27.7542 23.7439 27.938 23.8117C28.0298 23.8548 28.1217 23.9102 28.2074 23.9595C28.7725 24.2799 29.4175 24.4294 30.065 24.39C30.7125 24.3507 31.3349 24.1242 31.8575 23.7378C32.5214 23.2666 33.0246 22.6011 33.2986 21.8319C33.5726 21.0626 33.604 20.2272 33.3885 19.4393C33.1587 18.6378 32.6329 17.9548 31.9187 17.5303C31.4852 17.2787 30.9994 17.1321 30.4998 17.1021C30.0001 17.0722 29.5004 17.1598 29.0403 17.3579C28.9423 17.4071 28.8321 17.4502 28.7341 17.4379C28.581 17.4256 28.5626 17.1793 28.6974 17.1177C29.1873 16.8714 29.7079 16.7728 30.2529 16.7236C30.0053 13.256 28.4236 10.022 25.8435 7.70792C25.574 7.46159 25.3107 7.2091 24.9922 7.01204V7.0182ZM31.5819 19.1006C31.7044 19.0267 31.6615 18.7866 31.4961 18.7927C31.3737 18.7927 31.2389 18.842 31.1164 18.8912L31.0307 18.9159C30.4751 19.0905 29.9487 19.3479 29.469 19.6795C29.3343 19.8027 29.3343 19.9505 29.4751 20.0613C29.5794 20.1222 29.6856 20.1797 29.7936 20.2337C30.0977 20.3605 30.3698 20.554 30.5898 20.8003C30.5775 20.9173 30.4673 21.0097 30.3815 21.0774L30.3693 21.0897C30.1304 21.2745 29.8304 21.3976 29.5364 21.5208C29.3833 21.5824 29.2363 21.644 29.1016 21.7117C28.9975 21.761 28.9423 21.8472 29.0036 21.9519C29.0648 22.0751 29.1996 22.0196 29.3098 21.9827L29.3465 21.9704L29.6772 21.8287C30.008 21.6871 30.3509 21.5516 30.6204 21.3361C30.7857 21.2067 30.9327 21.022 30.9511 20.8003C30.9205 20.5909 30.7857 20.4493 30.6265 20.32C30.4022 20.1528 30.1646 20.0045 29.9161 19.8766L29.8487 19.8396C30.1794 19.6549 30.5101 19.4948 30.8653 19.3654L31.1716 19.2607C31.3118 19.217 31.4489 19.1635 31.5819 19.1006Z" fill="#ECAD80"/>
<path d="M18.5739 14.8885C19.1611 14.8722 19.7447 14.9861 20.2832 15.2223C20.8217 15.4584 21.3018 15.811 21.6894 16.2548C22.077 16.6987 22.3627 17.223 22.526 17.7904C22.6893 18.3579 22.7262 18.9545 22.6342 19.538C22.573 20.006 22.3893 20.4248 22.2178 20.8558C22.1259 20.8928 22.0341 20.9297 21.9483 20.9544C21.7524 20.9544 21.5564 20.8681 21.3727 20.8189C20.4231 20.5413 19.4402 20.3962 18.4514 20.3878C17.6221 20.3899 16.8023 20.5661 16.0446 20.9051C15.867 20.9852 15.6955 21.0898 15.5179 21.1453C15.2974 21.1268 15.2484 20.9482 15.1504 20.7881C14.7507 20.0106 14.6117 19.124 14.7541 18.2606C14.8964 17.3972 15.3126 16.6031 15.9405 15.997C16.6509 15.3196 17.594 14.9193 18.5739 14.8885Z" fill="#0A3D62"/>
<path d="M18.6967 15.2518C19.4887 15.2459 20.2606 15.5028 20.8928 15.9826C21.5249 16.4624 21.9822 17.1385 22.1936 17.906C22.4464 18.7996 22.3546 19.7563 21.9364 20.5848C21.5567 20.5294 21.2076 20.4001 20.834 20.32C19.8038 20.0738 18.7401 20.001 17.6862 20.1045C16.9368 20.1875 16.2119 20.4222 15.555 20.7942C15.1366 20.0822 14.9684 19.2494 15.0772 18.4297C15.186 17.61 15.5657 16.8508 16.1551 16.2741C16.8366 15.6119 17.7491 15.2449 18.6967 15.2518Z" fill="white"/>
<path d="M7.93007 16.305C8.78009 16.2203 9.63059 16.4611 10.3117 16.9794C10.9929 17.4977 11.4546 18.2552 11.6046 19.1008C11.7189 19.7705 11.6303 20.4592 11.3502 21.0776C11.0702 21.6959 10.6117 22.2153 10.0342 22.5682C9.45682 22.9211 8.7872 23.0912 8.11238 23.0564C7.43756 23.0216 6.78875 22.7836 6.25024 22.3731C5.71173 21.9627 5.30843 21.3989 5.09273 20.755C4.87703 20.1111 4.85892 19.4168 5.04073 18.7624C5.22255 18.108 5.59589 17.5237 6.11225 17.0855C6.62861 16.6472 7.26412 16.3753 7.93619 16.305H7.93007Z" fill="#0A3D62"/>
<path d="M7.64221 16.7175C8.10283 16.6218 8.57927 16.6349 9.03398 16.7559C9.4887 16.8768 9.90926 17.1023 10.2625 17.4146C10.6158 17.7268 10.8922 18.1173 11.0698 18.5553C11.2474 18.9932 11.3215 19.4666 11.2861 19.9383C11.2192 20.6515 10.9065 21.3188 10.4022 21.8248C9.89785 22.3308 9.23354 22.6437 8.5241 22.7095C7.76114 22.7712 7.00335 22.5392 6.404 22.0605C5.80465 21.5818 5.4085 20.892 5.29568 20.1307C5.18286 19.3695 5.36179 18.5935 5.79628 17.9599C6.23077 17.3262 6.88838 16.8822 7.63609 16.7175H7.64221Z" fill="white"/>
<path d="M16.394 18.0107C16.522 17.9704 16.657 17.9572 16.7904 17.9719C16.9238 17.9865 17.0528 18.0288 17.1692 18.0959C17.2856 18.1631 17.387 18.2537 17.4669 18.3622C17.5468 18.4706 17.6036 18.5944 17.6336 18.726C17.6637 18.8575 17.6664 18.9938 17.6415 19.1264C17.6167 19.2591 17.5648 19.3851 17.4893 19.4966C17.4137 19.6081 17.316 19.7027 17.2023 19.7745C17.0887 19.8462 16.9615 19.8936 16.8288 19.9136C16.2653 20.0491 15.6774 19.6057 15.6652 19.0145C15.6502 18.7869 15.7158 18.5613 15.8503 18.3776C15.9848 18.1939 16.1795 18.064 16.4001 18.0107H16.394ZM9.28984 18.6819C9.87776 18.4849 10.5147 18.9529 10.5392 19.5626C10.5882 20.1106 10.1166 20.6156 9.57155 20.5971C9.04487 20.6218 8.59167 20.1599 8.59167 19.6303C8.57943 19.1992 8.88564 18.7989 9.28984 18.6819ZM21.2566 21.5825L21.4526 21.644C21.4219 21.7487 21.4342 21.8473 21.3485 21.9212C20.9182 22.2986 20.3699 22.5122 19.799 22.5247C19.5663 22.5185 19.2723 22.4631 19.0947 22.2907L19.0702 22.069L19.2417 22.0074C19.5173 22.1429 19.7929 22.2229 20.1052 22.149C20.5646 22.069 20.8769 21.8103 21.2566 21.5763V21.5825ZM5.83577 22.5124C5.97663 22.4816 6.08074 22.5986 6.17873 22.6725C6.76005 23.1359 7.48241 23.3838 8.22422 23.3745C8.57943 23.3807 8.89176 23.239 9.24697 23.2944C9.21635 23.4422 9.24697 23.5654 9.06324 23.6024C8.50318 23.7497 7.91579 23.7571 7.35221 23.624C6.78863 23.4909 6.26594 23.2213 5.82964 22.8387C5.71941 22.7525 5.69491 22.5678 5.84189 22.5124H5.83577Z" fill="#0A3D62"/>
<path d="M16.6268 12.4499C17.0065 12.4192 17.4291 12.413 17.7598 12.6347C17.8682 12.702 17.953 12.8017 18.0024 12.9198C18.0518 13.0379 18.0633 13.1686 18.0354 13.2936C17.9374 13.6693 17.6251 13.9649 17.325 14.1804C16.7679 14.5693 16.1244 14.8146 15.451 14.8948C15.108 14.9255 14.6854 14.9194 14.3792 14.7346C14.2687 14.6736 14.1791 14.5803 14.1222 14.4671C14.0654 14.3539 14.0439 14.226 14.0608 14.1003C14.122 13.7432 14.3976 13.4537 14.6732 13.2382C15.2305 12.8071 15.9286 12.5423 16.6329 12.4499H16.6268ZM8.60406 13.4845C9.16108 13.4337 9.72078 13.5471 10.2147 13.8109C10.4536 13.9464 10.6679 14.1742 10.7047 14.4575C10.723 14.7162 10.5822 14.9379 10.3801 15.0857C10.1045 15.3074 9.77991 15.3936 9.43695 15.4552C8.82453 15.5167 8.17536 15.4736 7.6303 15.1719C7.39146 15.0364 7.14649 14.8147 7.11587 14.5253C7.06687 14.2605 7.23835 14.0018 7.44045 13.854C7.78603 13.6232 8.18934 13.4952 8.60406 13.4845Z" fill="#0A3D62"/>
<path d="M16.7368 23.4917L16.8103 23.6333C16.8348 23.7996 16.6878 23.8427 16.5776 23.9043C14.9352 24.6729 13.1327 25.032 11.323 24.9512C11.0168 24.9142 10.6983 24.9081 10.4043 24.828C10.2635 24.7664 10.2451 24.5817 10.386 24.5078C10.5513 24.5078 10.7228 24.5632 10.8882 24.5694C11.3291 24.631 11.7639 24.6125 12.2049 24.6125C13.5828 24.5632 14.9608 24.1937 16.2285 23.658C16.4 23.5841 16.5469 23.4979 16.7368 23.4917Z" fill="#0A3D62"/>
<path d="M7.58113 0.687659C7.72198 0.743083 7.73423 0.866249 7.7771 0.989413C7.89662 1.36708 8.09029 1.7168 8.34666 2.01784C8.61328 2.37064 8.9569 2.65717 9.35103 2.85536C9.84097 3.07089 10.3983 3.18174 10.9188 3.29259C11.7892 3.45894 12.6685 3.57409 13.5523 3.63745C14.4893 3.73598 15.4263 3.72367 16.3694 3.78525C17.6126 3.78525 18.862 3.8222 20.1052 3.74214C20.5951 3.74214 21.0851 3.72982 21.575 3.68056C22.8209 3.58581 24.0738 3.7045 25.2802 4.03158C25.7517 4.20401 26.2294 4.35796 26.6765 4.58582C28.1927 5.25613 29.5528 6.23782 30.6695 7.46787C31.9801 8.90889 32.9355 10.6948 33.3029 12.6223C33.5604 13.9704 33.4868 15.3614 33.0886 16.6744C32.9661 17.1301 32.8007 17.5612 32.5374 17.943C32.274 17.746 32.0474 17.5366 31.7351 17.4134C30.9922 17.0454 30.1368 16.9792 29.3467 17.2287C29.1691 17.2595 29.1323 17.4072 29.0404 17.5366C28.4521 18.4969 27.7115 19.3539 26.848 20.0738C26.2968 20.5172 25.7089 20.9236 25.1087 21.2869L24.925 21.2377C24.9127 21.0468 24.925 20.8682 24.9678 20.6834C25.0536 20.2277 25.0597 19.7782 25.0658 19.3225C25.0597 18.682 25.0474 18.0477 24.9678 17.4134C24.8882 16.7175 24.7719 16.0216 24.6616 15.3319C24.2329 15.2888 23.8042 15.3011 23.3755 15.2334C21.1555 14.9267 19.0488 14.0602 17.2513 12.7147C17.3008 13.1896 17.4882 13.6394 17.7902 14.0079C17.9188 14.1557 17.9005 14.3774 17.729 14.4759C16.9818 14.9009 16.0693 15.0918 15.218 15.1595C13.8109 15.2588 12.3984 15.0703 11.0658 14.6053C9.96958 14.2173 8.92234 13.6507 8.17518 12.7332C8.14884 13.2462 8.24108 13.7584 8.44464 14.2296C8.52426 14.3712 8.46914 14.5498 8.32216 14.6237C7.72346 14.9166 7.04552 15.0032 6.39303 14.8701C5.55517 14.6824 4.78936 14.2546 4.1883 13.6384C4.04132 14.0941 3.95558 14.5621 3.82697 15.0179C3.72286 15.4366 3.67999 15.8739 3.6065 16.2988C3.50239 16.4342 3.33703 16.268 3.26354 16.1756C2.85764 15.5564 2.64443 14.8296 2.65112 14.088C2.64881 13.3807 2.81692 12.6834 3.14106 12.0557C2.78879 11.251 2.68634 10.3582 2.84709 9.49393C2.31429 9.77105 1.75085 10.1097 1.41402 10.6209C1.32216 10.7379 1.28541 10.9288 1.12006 10.935C1.01595 10.9042 0.930208 10.8672 0.87509 10.7625C0.512102 10.1023 0.36632 9.34348 0.458643 8.59482C0.550506 7.7142 0.930207 6.87052 1.44464 6.16848C2.19792 5.14622 3.28191 4.36412 4.48839 3.98231C5.23318 3.72971 6.02895 3.66832 6.80335 3.80372C6.58443 3.33573 6.50328 2.81452 6.56947 2.30164C6.63567 1.78876 6.84645 1.30565 7.17693 0.909356C7.28104 0.804666 7.4219 0.619919 7.58113 0.687659ZM28.5873 24.2798C28.7097 24.2182 28.8935 24.3168 29.016 24.3353C29.3222 24.4215 29.708 24.3599 29.9836 24.52C29.9407 24.7663 29.8978 24.9942 29.9836 25.2344C30.0754 25.53 30.253 25.8009 30.4735 26.0165C30.6144 26.1519 30.792 26.2258 30.939 26.3552C30.9818 26.466 30.9512 26.5769 30.8226 26.6015C30.5715 26.6384 30.2898 26.5584 30.0387 26.5153C29.4324 26.3798 28.7526 26.2689 28.2137 25.961C28.0789 25.8748 27.8646 25.764 27.834 25.5915C27.8034 25.493 27.8707 25.4191 27.9258 25.339C28.1831 25.0188 28.3545 24.6185 28.5873 24.2798Z" fill="#0A3D62"/>
<path d="M7.47091 1.1311C7.71952 1.81687 8.14933 2.42153 8.71412 2.88004C9.17056 3.20453 9.6939 3.42134 10.2452 3.51434C12.2111 3.9762 14.2933 4.08089 16.3082 4.13016C17.9005 4.14247 19.4928 4.15479 21.0851 4.06858C22.5855 3.93309 24.086 4.03778 25.5251 4.52428C27.6686 5.22632 29.5978 6.5996 30.9757 8.39165C32.0658 9.80188 32.813 11.4461 33.0335 13.2259C33.2172 14.6422 33.0335 16.0956 32.4394 17.395C32.0887 17.1677 31.7098 16.9875 31.3125 16.8592C30.6965 16.695 30.0485 16.695 29.4324 16.8592C29.4447 16.7484 29.4937 16.6129 29.4324 16.5205C29.3773 16.4281 29.2119 16.4404 29.1874 16.5575C29.1097 16.759 29.0133 16.9528 28.8996 17.1363C28.3175 18.1011 27.5856 18.966 26.7316 19.6981C26.2846 20.0861 25.8007 20.4002 25.323 20.7327C25.4639 19.8644 25.4639 18.9592 25.3843 18.0847C25.323 17.0132 25.121 15.9355 24.925 14.8824C24.8637 14.5991 24.8331 14.2789 24.7045 14.0203C24.631 13.8786 24.3983 13.8971 24.4167 14.0818C24.4779 14.3774 24.5636 14.6607 24.6004 14.9563C22.1201 14.9194 19.701 14.0018 17.68 12.5731C17.5147 12.4499 17.3493 12.3206 17.1717 12.2036C17.0492 12.259 16.9084 12.2529 16.9022 12.4191C16.9018 13.0609 17.1177 13.6839 17.5147 14.1865C16.3327 14.79 15.0405 14.8763 13.736 14.7962C12.3887 14.6854 11.0107 14.322 9.82261 13.6385C9.25754 13.3302 8.76634 12.9014 8.38342 12.3822C8.3038 12.2713 8.24256 12.1728 8.1017 12.142C8.00984 12.1174 7.93022 12.179 7.90572 12.2652C7.78016 12.9604 7.85891 13.6773 8.13232 14.3282C7.34842 14.6977 6.47878 14.6176 5.70712 14.2666C4.63947 13.7539 3.81163 12.8442 3.39829 11.7294C3.11595 11.0085 3.05619 10.2188 3.22681 9.46318C3.25131 9.33386 3.28805 9.21685 3.17782 9.11832C3.03696 8.98899 2.86548 9.09369 2.7185 9.16143C2.28368 9.39544 1.83048 9.65408 1.4814 10.0113C1.34667 10.1467 1.23643 10.3007 1.11395 10.4423C0.830579 9.85353 0.726196 9.19376 0.813862 8.5456C0.936346 7.73272 1.27318 6.9691 1.77537 6.31633C2.39795 5.50335 3.22142 4.86852 4.16382 4.47502C4.95997 4.14863 5.82961 4.01315 6.687 4.13632C6.82786 4.15479 6.98097 4.21021 7.12182 4.1979C7.24431 4.11168 7.36679 4.00083 7.25043 3.84688C6.97028 3.43861 6.8483 2.94141 6.90747 2.44896C6.94422 1.98094 7.12182 1.46365 7.45866 1.1311H7.47091Z" fill="#3EAC2C"/>
<path d="M3.33724 12.4869C3.52097 12.7763 3.7047 13.0657 3.91905 13.3367C3.83331 13.7555 3.68632 14.1558 3.60671 14.5807C3.53322 14.9317 3.42298 15.2827 3.34949 15.6337C3.13174 15.1373 3.01825 14.6011 3.01614 14.0585C3.01404 13.516 3.12335 12.9788 3.33724 12.4807V12.4869ZM28.7589 24.6186C29.0345 24.6802 29.3162 24.7109 29.598 24.7541C29.5367 25.3329 29.8184 25.801 30.1859 26.2074C29.5428 26.0473 28.7589 25.9303 28.2139 25.5362C28.416 25.2406 28.5813 24.9326 28.7589 24.6186Z" fill="#3EAC2C"/>
</svg>
